<svg width="243" height="243" viewBox="0 0 243 243" fill="none" xmlns="http://www.w3.org/2000/svg">
<path d="M89.7154 226.344C88.5994 226.344 87.6334 226.074 86.8174 225.534C86.0134 224.982 85.3954 224.22 84.9634 223.248C84.5314 222.264 84.3154 221.124 84.3154 219.828C84.3154 218.532 84.5314 217.398 84.9634 216.426C85.3954 215.442 86.0134 214.68 86.8174 214.14C87.6334 213.588 88.5994 213.312 89.7154 213.312C90.8314 213.312 91.7914 213.588 92.5954 214.14C93.3994 214.68 94.0174 215.442 94.4494 216.426C94.8814 217.398 95.0974 218.532 95.0974 219.828C95.0974 221.124 94.8814 222.264 94.4494 223.248C94.0174 224.22 93.3994 224.982 92.5954 225.534C91.7914 226.074 90.8314 226.344 89.7154 226.344ZM89.7154 225.012C90.4474 225.012 91.1014 224.808 91.6774 224.4C92.2654 223.98 92.7214 223.386 93.0454 222.618C93.3814 221.838 93.5494 220.908 93.5494 219.828C93.5494 218.748 93.3814 217.824 93.0454 217.056C92.7214 216.288 92.2654 215.7 91.6774 215.292C91.1014 214.872 90.4474 214.662 89.7154 214.662C88.9714 214.662 88.3114 214.872 87.7354 215.292C87.1594 215.7 86.7034 216.288 86.3674 217.056C86.0314 217.824 85.8634 218.748 85.8634 219.828C85.8634 220.908 86.0314 221.838 86.3674 222.618C86.7034 223.386 87.1594 223.98 87.7354 224.4C88.3114 224.808 88.9714 225.012 89.7154 225.012ZM96.908 226.128V225.066C97.76 224.394 98.564 223.716 99.32 223.032C100.088 222.336 100.766 221.652 101.354 220.98C101.954 220.308 102.422 219.648 102.758 219C103.106 218.352 103.28 217.728 103.28 217.128C103.28 216.684 103.202 216.27 103.046 215.886C102.902 215.502 102.662 215.196 102.326 214.968C101.99 214.728 101.534 214.608 100.958 214.608C100.406 214.608 99.944 214.734 99.572 214.986C99.2 215.226 98.918 215.55 98.726 215.958C98.546 216.366 98.456 216.804 98.456 217.272H96.998C96.998 216.444 97.172 215.736 97.52 215.148C97.868 214.548 98.342 214.092 98.942 213.78C99.542 213.468 100.22 213.312 100.976 213.312C102.092 213.312 103.004 213.63 103.712 214.266C104.432 214.89 104.792 215.826 104.792 217.074C104.792 217.818 104.606 218.556 104.234 219.288C103.862 220.008 103.388 220.71 102.812 221.394C102.236 222.066 101.618 222.696 100.958 223.284C100.31 223.872 99.704 224.4 99.14 224.868H105.224V226.128H96.908ZM115.123 226.128V214.77H111.361V213.528H120.397V214.77H116.635V226.128H115.123ZM124.604 226.344C123.764 226.344 123.008 226.152 122.336 225.768C121.664 225.384 121.13 224.844 120.734 224.148C120.35 223.44 120.158 222.612 120.158 221.664C120.158 220.716 120.356 219.894 120.752 219.198C121.148 218.49 121.682 217.944 122.354 217.56C123.038 217.176 123.8 216.984 124.64 216.984C125.48 216.984 126.236 217.176 126.908 217.56C127.58 217.944 128.108 218.49 128.492 219.198C128.888 219.894 129.086 220.716 129.086 221.664C129.086 222.612 128.888 223.44 128.492 224.148C128.096 224.844 127.556 225.384 126.872 225.768C126.2 226.152 125.444 226.344 124.604 226.344ZM124.604 225.048C125.12 225.048 125.6 224.922 126.044 224.67C126.488 224.418 126.848 224.04 127.124 223.536C127.4 223.032 127.538 222.408 127.538 221.664C127.538 220.92 127.4 220.296 127.124 219.792C126.86 219.288 126.506 218.91 126.062 218.658C125.618 218.406 125.144 218.28 124.64 218.28C124.124 218.28 123.644 218.406 123.2 218.658C122.756 218.91 122.396 219.288 122.12 219.792C121.844 220.296 121.706 220.92 121.706 221.664C121.706 222.408 121.844 223.032 122.12 223.536C122.396 224.04 122.75 224.418 123.182 224.67C123.626 224.922 124.1 225.048 124.604 225.048ZM134.446 226.344C133.39 226.344 132.55 226.026 131.926 225.39C131.302 224.742 130.99 223.752 130.99 222.42V217.2H132.502V222.258C132.502 224.118 133.264 225.048 134.788 225.048C135.568 225.048 136.21 224.772 136.714 224.22C137.23 223.656 137.488 222.858 137.488 221.826V217.2H139V226.128H137.632L137.524 224.526C137.248 225.09 136.834 225.534 136.282 225.858C135.742 226.182 135.13 226.344 134.446 226.344ZM141.489 226.128V217.2H142.857L142.983 218.91C143.259 218.322 143.679 217.854 144.243 217.506C144.807 217.158 145.503 216.984 146.331 216.984V218.568H145.917C145.389 218.568 144.903 218.664 144.459 218.856C144.015 219.036 143.661 219.348 143.397 219.792C143.133 220.236 143.001 220.848 143.001 221.628V226.128H141.489Z" fill="#5A7184"/>
<path d="M72.3478 198.128H75.8998L69.8758 181.352H65.9638L59.9398 198.128H63.4678L64.5718 194.936H71.2438L72.3478 198.128ZM70.3318 192.248H65.4838L67.9078 185.24L70.3318 192.248ZM90.9035 184.832H87.5195V192.152C87.5195 194.288 86.3675 195.44 84.5435 195.44C82.7675 195.44 81.5915 194.288 81.5915 192.152V184.832H78.2315V192.632C78.2315 196.28 80.4635 198.296 83.5595 198.296C85.2155 198.296 86.6795 197.576 87.5195 196.448V198.128H90.9035V184.832ZM104.739 194.336C104.643 189.464 97.2747 190.976 97.2747 188.552C97.2747 187.784 97.9227 187.28 99.1707 187.28C100.491 187.28 101.307 187.976 101.403 189.008H104.619C104.427 186.368 102.483 184.616 99.2667 184.616C95.9787 184.616 94.0107 186.392 94.0107 188.6C94.0107 193.472 101.523 191.96 101.523 194.336C101.523 195.104 100.803 195.704 99.4827 195.704C98.1387 195.704 97.2027 194.936 97.0827 193.928H93.6987C93.8427 196.4 96.1707 198.344 99.5067 198.344C102.747 198.344 104.739 196.616 104.739 194.336ZM108.225 194C108.225 197.048 109.929 198.128 112.473 198.128H114.585V195.296H113.025C111.969 195.296 111.609 194.912 111.609 194.024V187.592H114.585V184.832H111.609V181.544H108.225V184.832H106.641V187.592H108.225V194ZM120.562 191.504C120.562 188.936 121.762 188.168 123.754 188.168H124.642V184.64C122.794 184.64 121.402 185.528 120.562 186.896V184.832H117.202V198.128H120.562V191.504ZM126.241 191.432C126.241 195.584 128.929 198.344 132.289 198.344C134.401 198.344 135.913 197.336 136.705 196.184V198.128H140.089V184.832H136.705V186.728C135.913 185.624 134.449 184.616 132.313 184.616C128.929 184.616 126.241 187.28 126.241 191.432ZM136.705 191.48C136.705 194 135.025 195.392 133.177 195.392C131.377 195.392 129.673 193.952 129.673 191.432C129.673 188.912 131.377 187.568 133.177 187.568C135.025 187.568 136.705 188.96 136.705 191.48ZM143.57 198.128H146.93V180.368H143.57V198.128ZM150.45 198.128H153.81V184.832H150.45V198.128ZM152.154 183.248C153.33 183.248 154.218 182.384 154.218 181.28C154.218 180.176 153.33 179.312 152.154 179.312C150.954 179.312 150.09 180.176 150.09 181.28C150.09 182.384 150.954 183.248 152.154 183.248ZM156.466 191.432C156.466 195.584 159.154 198.344 162.514 198.344C164.626 198.344 166.138 197.336 166.93 196.184V198.128H170.314V184.832H166.93V186.728C166.138 185.624 164.674 184.616 162.538 184.616C159.154 184.616 156.466 187.28 156.466 191.432ZM166.93 191.48C166.93 194 165.25 195.392 163.402 195.392C161.602 195.392 159.898 193.952 159.898 191.432C159.898 188.912 161.602 187.568 163.402 187.568C165.25 187.568 166.93 188.96 166.93 191.48Z" fill="#221314"/>
<g filter="url(#filter0_d_1_531)">
<rect x="56.1276" y="31.1277" width="119.997" height="119.997" rx="59.9986" fill="white"/>
<rect x="53.6276" y="28.6277" width="124.997" height="124.997" rx="62.4986" stroke="white" stroke-width="5"/>
</g>
<g clip-path="url(#clip0_1_531)">
<path d="M116.127 31.1277V151.128C149.265 151.128 176.128 124.265 176.128 91.1286C176.128 57.9885 149.265 31.1277 116.127 31.1277Z" fill="#252F6B"/>
<path d="M116.127 31.1277C82.9904 31.1277 56.1276 57.9895 56.1276 91.1276C56.1276 124.264 82.9904 151.127 116.127 151.127C149.265 151.127 149.265 31.1277 116.127 31.1277Z" fill="#273375"/>
<path d="M97.2757 123.104L101.322 118.06L95.0712 119.192L92.9026 113.137L90.5456 119.192L84.164 118.06L88.2197 122.993L84.0087 127.92L90.427 126.912L92.5918 132.842L94.9499 126.915L101.496 128.085L97.2757 123.104Z" fill="#F3F4F5"/>
<path d="M145.101 127.559L147.395 124.701L143.852 125.342L142.624 121.912L141.288 125.342L137.672 124.701L139.97 127.495L137.585 130.288L141.221 129.716L142.447 133.075L143.783 129.718L147.493 130.381L145.101 127.559Z" fill="#F3F4F5"/>
<path d="M145.101 64.4006L147.395 61.5414L143.852 62.1836L142.624 58.7532L141.288 62.1836L137.672 61.5414L139.97 64.337L137.585 67.129L141.221 66.5577L142.447 69.918L143.783 66.5595L147.493 67.2217L145.101 64.4006Z" fill="#F3F4F5"/>
<path d="M159.944 80.7387L162.237 77.8795L158.696 78.522L157.467 75.0916L156.131 78.522L152.513 77.8795L154.811 80.6754L152.426 83.4681L156.062 82.8959L157.289 86.2564L158.625 82.8979L162.335 83.5601L159.944 80.7387Z" fill="#F3F4F5"/>
<path d="M132.261 88.0026L134.556 85.1442L131.013 85.7866L129.784 82.3562L128.448 85.7866L124.833 85.1442L127.13 87.938L124.746 90.7318L128.382 90.1605L129.609 93.518L130.944 90.1625L134.654 90.8248L132.261 88.0026Z" fill="#F3F4F5"/>
<path d="M68.7285 54.3621C67.7868 55.5755 66.8877 56.8215 66.038 58.1051H72.4698L68.7285 54.3621Z" fill="#29337A"/>
<path d="M99.7125 91.1273H105.492L99.7125 85.3474V91.1273Z" fill="#29337A"/>
<path d="M80.5535 42.8157C79.1769 43.8313 77.8517 44.9085 76.568 46.0348L80.5535 50.0186V42.8157Z" fill="#29337A"/>
<path d="M74.7718 91.1278H80.5534V85.3462L74.7718 91.1278Z" fill="#29337A"/>
<path d="M116.127 31.1277C110.433 31.1277 104.932 31.9376 99.7125 33.4204V50.0183L116.128 33.603V31.1277H116.127Z" fill="#29337A"/>
<path d="M116.128 85.5959V77.2656H107.798L116.128 85.5959Z" fill="#29337A"/>
<path d="M58.6032 91.1275L72.4678 77.2656H57.756C56.7016 81.7173 56.1276 86.3546 56.1276 91.1275H58.6032Z" fill="#29337A"/>
<path d="M107.793 58.1053H116.128V49.7712L107.793 58.1053Z" fill="#29337A"/>
<path d="M116.128 87.3458V85.596L107.798 77.2658H116.128V74.2825H103.065L116.128 87.3458Z" fill="white"/>
<path d="M72.4696 58.1049H66.0379C65.3956 59.078 64.7854 60.0736 64.1989 61.0854H76.8341L69.3345 53.5879C69.1291 53.8438 68.9272 54.1024 68.7273 54.3608L72.4696 58.1049Z" fill="white"/>
<path d="M80.5535 85.3457V91.1274H83.535V80.9812L73.3896 91.1274H74.7718L80.5535 85.3457Z" fill="white"/>
<path d="M99.7122 33.4194C98.707 33.7047 97.7141 34.0153 96.7317 34.3497V54.3828L116.128 34.9873V33.6051L99.7122 50.0173V33.4194Z" fill="white"/>
<path d="M80.4483 77.266L80.5534 77.1608L83.4306 74.2837H58.5422C58.2552 75.2679 57.9927 76.2617 57.7558 77.266H72.4676L58.603 91.1278H66.5857L80.4483 77.266Z" fill="white"/>
<path d="M58.6028 91.1275L72.4675 77.2656L58.6028 91.1275Z" fill="white"/>
<path d="M116.128 61.0867V58.1052H107.793L116.128 49.7712V41.7905L96.8314 61.0867H116.128Z" fill="white"/>
<path d="M116.128 49.7712L107.792 58.1053L116.128 49.7712Z" fill="white"/>
<path d="M80.5533 50.0189L76.5678 46.0352C75.1545 47.2773 73.7976 48.5845 72.5063 49.9546L80.5533 58.0016L80.6387 58.0887L83.5349 60.9849V40.7612C82.5213 41.4197 81.5236 42.0989 80.5543 42.815V50.0189H80.5533Z" fill="white"/>
<path d="M99.7123 85.3475L105.492 91.1274H113.107L96.7308 74.7522V91.1274H99.7123V85.3475Z" fill="white"/>
<path d="M80.5536 58.002L80.639 58.0891L80.5536 58.002Z" fill="#D32030"/>
<path d="M106.045 77.2659L103.065 74.2836H116.128V61.0868H96.8313L96.7318 61.1881V61.0868H96.8313L116.128 41.7916V34.9875L96.7308 54.384V34.3508C92.0423 35.9529 87.618 38.1147 83.5339 40.7625V60.9852L83.6373 61.0865H83.5339V60.9852L80.6378 58.0893L80.6547 58.1063H80.5534V58.0029L72.5064 49.9559C71.4019 51.125 70.3437 52.3357 69.3346 53.59L76.8339 61.0875H64.199C61.8115 65.203 59.9026 69.6253 58.5422 74.2844H83.4306L83.5339 74.1792V74.2844H83.4306L80.5534 77.1618V77.2669H80.4483L66.5854 91.128H73.3895L83.5349 80.9816V91.128H96.7318V74.7525L113.107 91.128H115.359C115.616 90.86 115.877 90.5937 116.129 90.3181V87.3459L106.045 77.2659Z" fill="#D32030"/>
<path d="M96.7308 54.3843L116.128 34.9878L96.7308 54.3843Z" fill="#D32030"/>
<path d="M80.5533 77.2656V77.1594L80.4481 77.2656H80.5533Z" fill="#D32030"/>
<path d="M83.5348 74.1775L83.4307 74.2826H83.5348V74.1775Z" fill="#D32030"/>
<path d="M96.7308 61.188L96.8314 61.0867H96.7308V61.188Z" fill="#D32030"/>
<path d="M80.5536 58.1051H80.6559L80.639 58.0891L80.5536 58.002V58.1051Z" fill="#D32030"/>
<path d="M83.6382 61.087L83.5351 60.9846V61.087H83.6382Z" fill="#D32030"/>
</g>
<defs>
<filter id="filter0_d_1_531" x="-7.62939e-06" y="0.000114441" width="242.252" height="242.252" filterUnits="userSpaceOnUse" color-interpolation-filters="sRGB">
<feFlood flood-opacity="0" result="BackgroundImageFix"/>
<feColorMatrix in="SourceAlpha" type="matrix" values="0 0 0 0 0 0 0 0 0 0 0 0 0 0 0 0 0 0 127 0" result="hardAlpha"/>
<feOffset dx="5" dy="30"/>
<feGaussianBlur stdDeviation="28.0638"/>
<feColorMatrix type="matrix" values="0 0 0 0 0.215686 0 0 0 0 0.215686 0 0 0 0 0.215686 0 0 0 0.3 0"/>
<feBlend mode="normal" in2="BackgroundImageFix" result="effect1_dropShadow_1_531"/>
<feBlend mode="normal" in="SourceGraphic" in2="effect1_dropShadow_1_531" result="shape"/>
</filter>
<clipPath id="clip0_1_531">
<rect width="120" height="120" fill="white" transform="translate(56.1276 31.1277)"/>
</clipPath>
</defs>
</svg>
