<svg width="58" height="58" viewBox="0 0 58 58" fill="none" xmlns="http://www.w3.org/2000/svg">
<g filter="url(#filter0_d_1_1618)">
<rect x="13.2181" y="7.33057" width="28.2595" height="28.2595" rx="14.1297" fill="white"/>
<rect x="12.6294" y="6.74181" width="29.437" height="29.437" rx="14.7185" stroke="white" stroke-width="1.1775"/>
</g>
<g clip-path="url(#clip0_1_1618)">
<path d="M27.348 7.33069V35.5908C35.1521 35.5908 41.4783 29.2646 41.4783 21.461C41.4783 13.6564 35.1521 7.33069 27.348 7.33069Z" fill="#252F6B"/>
<path d="M27.348 7.33057C19.5444 7.33057 13.2181 13.6566 13.2181 21.4606C13.2181 29.2642 19.5444 35.5904 27.348 35.5904C35.152 35.5904 35.152 7.33057 27.348 7.33057Z" fill="#273375"/>
<path d="M22.9086 28.9902L23.8614 27.8023L22.3894 28.069L21.8787 26.6431L21.3236 28.069L19.8208 27.8023L20.7759 28.9641L19.7842 30.1245L21.2957 29.8871L21.8055 31.2835L22.3608 29.8877L23.9025 30.1633L22.9086 28.9902Z" fill="#F3F4F5"/>
<path d="M34.1715 30.0396L34.7119 29.3664L33.8774 29.5175L33.5881 28.7096L33.2735 29.5175L32.4219 29.3664L32.9631 30.0243L32.4014 30.6823L33.2577 30.5476L33.5466 31.3385L33.8612 30.548L34.7348 30.7042L34.1715 30.0396Z" fill="#F3F4F5"/>
<path d="M34.1715 15.1657L34.7119 14.4923L33.8774 14.6436L33.5881 13.8357L33.2735 14.6436L32.4219 14.4923L32.9631 15.1507L32.4014 15.8082L33.2577 15.6737L33.5466 16.465L33.8612 15.6741L34.7348 15.83L34.1715 15.1657Z" fill="#F3F4F5"/>
<path d="M37.667 19.0129L38.207 18.3396L37.373 18.4909L37.0836 17.683L36.7691 18.4909L35.917 18.3396L36.4583 18.998L35.8965 19.6557L36.7528 19.5209L37.0417 20.3123L37.3563 19.5214L38.23 19.6773L37.667 19.0129Z" fill="#F3F4F5"/>
<path d="M31.1476 20.7239L31.688 20.0507L30.8536 20.202L30.5642 19.3942L30.2496 20.202L29.3982 20.0507L29.9393 20.7087L29.3777 21.3666L30.234 21.2321L30.5229 22.0228L30.8375 21.2326L31.7112 21.3885L31.1476 20.7239Z" fill="#F3F4F5"/>
<path d="M16.1857 12.8031C15.964 13.0889 15.7522 13.3823 15.5521 13.6846H17.0668L16.1857 12.8031Z" fill="#29337A"/>
<path d="M23.4825 21.4613H24.8437L23.4825 20.1001V21.4613Z" fill="#29337A"/>
<path d="M18.9706 10.0835C18.6464 10.3227 18.3343 10.5764 18.032 10.8416L18.9706 11.7798V10.0835Z" fill="#29337A"/>
<path d="M17.609 21.4608H18.9706V20.0992L17.609 21.4608Z" fill="#29337A"/>
<path d="M27.3481 7.33105C26.0072 7.33105 24.7119 7.52179 23.4825 7.87099V11.7798L27.3485 7.914V7.33105H27.3481Z" fill="#29337A"/>
<path d="M27.3486 20.1577V18.1959H25.3868L27.3486 20.1577Z" fill="#29337A"/>
<path d="M13.8013 21.4604L17.0664 18.1959H13.6018C13.3535 19.2443 13.2183 20.3364 13.2183 21.4604H13.8013Z" fill="#29337A"/>
<path d="M25.3854 13.6837H27.3485V11.7211L25.3854 13.6837Z" fill="#29337A"/>
<path d="M27.3483 20.5697V20.1576L25.3865 18.1959H27.3483V17.4933H24.2719L27.3483 20.5697Z" fill="white"/>
<path d="M17.0667 13.6829H15.552C15.4007 13.9121 15.257 14.1465 15.1189 14.3848H18.0945L16.3283 12.6191C16.28 12.6794 16.2324 12.7403 16.1853 12.8012L17.0667 13.6829Z" fill="white"/>
<path d="M18.9704 20.0979V21.4595H19.6726V19.0701L17.2833 21.4595H17.6088L18.9704 20.0979Z" fill="white"/>
<path d="M23.4823 7.86975C23.2456 7.93693 23.0118 8.01007 22.7804 8.08883V12.8067L27.3483 8.23899V7.91348L23.4823 11.7786V7.86975Z" fill="white"/>
<path d="M18.9456 18.1956L18.9704 18.1709L19.648 17.4933H13.7868C13.7192 17.7251 13.6573 17.9591 13.6016 18.1956H17.0662L13.8011 21.4601H15.681L18.9456 18.1956Z" fill="white"/>
<path d="M13.801 21.4597L17.0662 18.1952L13.801 21.4597Z" fill="white"/>
<path d="M27.3483 14.3853V13.6832H25.3852L27.3483 11.7205V9.84106L22.8038 14.3853H27.3483Z" fill="white"/>
<path d="M27.3483 11.7203L25.3851 13.683L27.3483 11.7203Z" fill="white"/>
<path d="M18.9704 11.7787L18.0318 10.8405C17.699 11.1331 17.3794 11.4409 17.0753 11.7636L18.9704 13.6586L18.9905 13.6792L19.6725 14.3612V9.59851C19.4338 9.75357 19.1989 9.91352 18.9706 10.0822V11.7787H18.9704Z" fill="white"/>
<path d="M23.4823 20.099L24.8435 21.4601H26.6368L22.7802 17.6038V21.4601H23.4823V20.099Z" fill="white"/>
<path d="M18.9706 13.6602L18.9916 13.6816L18.9706 13.6602Z" fill="#D32030"/>
<path d="M24.9739 18.196L24.272 17.4937H27.3484V14.3858H22.804L22.7805 14.4097V14.3858H22.804L27.3484 9.84178V8.23941L22.7803 12.8073V8.08948C21.6762 8.46677 20.6342 8.97586 19.6724 9.59944V14.3619L19.6968 14.3858H19.6724V14.3619L18.9904 13.6799L18.9944 13.6839H18.9705V13.6596L17.0754 11.7645C16.8153 12.0398 16.5661 12.3249 16.3285 12.6203L18.0946 14.386H15.119C14.5568 15.3552 14.1072 16.3966 13.7869 17.4939H19.6481L19.6724 17.4691V17.4939H19.6481L18.9705 18.1715V18.1963H18.9458L15.681 21.4606H17.2834L19.6727 19.0711V21.4606H22.7805V17.6041L26.637 21.4606H27.1673C27.2277 21.3974 27.2894 21.3347 27.3487 21.2698V20.5699L24.9739 18.196Z" fill="#D32030"/>
<path d="M22.7804 12.808L27.3485 8.24011L22.7804 12.808Z" fill="#D32030"/>
<path d="M18.9711 18.1965V18.171L18.9458 18.1965H18.9711Z" fill="#D32030"/>
<path d="M19.6731 17.469L19.6481 17.4943H19.6731V17.469Z" fill="#D32030"/>
<path d="M22.7804 14.4106L22.8048 14.386H22.7804V14.4106Z" fill="#D32030"/>
<path d="M18.9706 13.6849H18.9952L18.9911 13.6811L18.9706 13.6602V13.6849Z" fill="#D32030"/>
<path d="M19.6975 14.3867L19.6727 14.3621V14.3867H19.6975Z" fill="#D32030"/>
</g>
<defs>
<filter id="filter0_d_1_1618" x="6.09159e-05" y="9.05991e-06" width="57.0507" height="57.0507" filterUnits="userSpaceOnUse" color-interpolation-filters="sRGB">
<feFlood flood-opacity="0" result="BackgroundImageFix"/>
<feColorMatrix in="SourceAlpha" type="matrix" values="0 0 0 0 0 0 0 0 0 0 0 0 0 0 0 0 0 0 127 0" result="hardAlpha"/>
<feOffset dx="1.1775" dy="7.06503"/>
<feGaussianBlur stdDeviation="6.60905"/>
<feColorMatrix type="matrix" values="0 0 0 0 0.215686 0 0 0 0 0.215686 0 0 0 0 0.215686 0 0 0 0.3 0"/>
<feBlend mode="normal" in2="BackgroundImageFix" result="effect1_dropShadow_1_1618"/>
<feBlend mode="normal" in="SourceGraphic" in2="effect1_dropShadow_1_1618" result="shape"/>
</filter>
<clipPath id="clip0_1_1618">
<rect width="28.2601" height="28.2601" fill="white" transform="translate(13.2181 7.33057)"/>
</clipPath>
</defs>
</svg>
