<svg width="34" height="40" viewBox="0 0 34 40" fill="none" xmlns="http://www.w3.org/2000/svg">
<path d="M21.1188 12.5576L22.2278 12.3084C22.3986 11.9256 22.6496 11.591 22.9578 11.3272C21.9153 11.0799 21.0333 10.4144 20.4999 9.51758L19.4127 9.76185C20.3426 10.3816 20.9901 11.3924 21.1188 12.5576Z" fill="#FE5B3E"/>
<path d="M10.499 38.0484L12.0608 31.8953C12.0931 31.768 12.1359 31.6436 12.1888 31.5233L12.3297 31.2031C12.0831 31.032 11.8978 30.8042 11.7754 30.5234C11.6699 31.4625 11.0128 32.237 10.1364 32.5139C9.94573 32.9838 9.52699 33.3371 9.01782 33.4357L8.36831 37.804C8.2172 38.8206 8.9188 39.7674 9.93542 39.9185C10.2047 39.9585 10.4804 39.9415 10.7634 39.8529C10.4501 39.3296 10.3371 38.6864 10.499 38.0484Z" fill="#FE5B3E"/>
<path d="M12.7082 23.8496C12.6597 23.8389 11.8834 23.6691 11.7618 23.6425C11.7807 23.7626 11.7906 23.8856 11.7906 24.0109V28.8642C12.0039 27.6993 12.4698 25.153 12.7082 23.8496Z" fill="#FE5B3E"/>
<path d="M17.7298 15.8382C19.3041 15.583 20.3735 14.0999 20.1183 12.5256C19.863 10.9513 18.3799 9.88195 16.8057 10.1372C15.2314 10.3924 14.162 11.8755 14.4172 13.4498C14.6724 15.0241 16.1555 16.0934 17.7298 15.8382Z" fill="#FE5B3E"/>
<path d="M20.1362 30.4938H21.3403C21.7069 30.4938 21.9856 30.1295 21.914 29.7377L21.8691 29.4929C21.6231 29.3996 21.3978 29.2488 21.2144 29.0497C20.8733 28.6793 20.7027 28.1752 20.7465 27.6668L20.9986 24.7351L20.3804 21.3566L19.2647 21.4889C18.3826 21.5934 17.5568 21.2002 17.0671 20.5311L15.2501 23.4693C14.6882 24.3781 13.6789 24.0589 13.669 24.0596L12.63 29.7378C12.5583 30.1297 12.8356 30.4939 13.2037 30.4939H13.7438L13.1123 31.9296C13.082 31.9988 13.0573 32.0703 13.0388 32.1436L11.477 38.2966C11.2913 39.0281 11.7337 39.7717 12.4652 39.9573C13.1965 40.1429 13.9403 39.7006 14.126 38.969L15.6598 32.926L16.7296 30.4939H17.4033V31.4768V33.1715C17.4033 33.344 17.436 33.515 17.4996 33.6753L19.6656 39.1365C19.9434 39.837 20.737 40.1816 21.4396 39.903C21.6037 39.838 21.7471 39.7438 21.8687 39.6301C21.6232 39.1895 21.4924 38.6778 21.5154 38.1369L21.5828 36.5573L20.1364 32.9104V31.4768V30.4938H20.1362Z" fill="#FE5B3E"/>
<path d="M12.3899 6.84281C14.2747 6.70102 15.6878 5.05811 15.546 3.17327C15.4042 1.28843 13.7613 -0.124593 11.8764 0.0171951C9.99159 0.158984 8.57857 1.80189 8.72035 3.68673C8.86214 5.57157 10.5051 6.9846 12.3899 6.84281Z" fill="#FE5B3E"/>
<path d="M6.12769 32.6239H4.65515C4.40541 33.1215 3.89155 33.4646 3.29797 33.4646H3.19449L2.54928 37.8045C2.39817 38.8212 3.09976 39.7679 4.11639 39.919C5.13543 40.0705 6.08013 39.3662 6.23085 38.3519L6.97102 33.3731C6.6032 33.2403 6.30144 32.9701 6.12769 32.6239Z" fill="#FE5B3E"/>
<path d="M17.8502 17.0436C17.2303 17.0436 16.7295 17.0436 16.0823 17.0436C15.4256 17.0436 14.8605 17.5473 14.7331 18.2441L14.5398 19.3004L15.8579 18.5445L13.4949 20.8305L9.88089 20.0396C9.30424 19.9132 8.73377 20.2788 8.60749 20.8558C8.5458 21.1376 8.60203 21.4173 8.74228 21.6449H9.4249C10.1708 21.6449 10.8368 21.9922 11.2707 22.5333L13.5977 23.0426C13.9458 23.1189 14.3114 23.0166 14.5699 22.7665L16.9921 20.4232C16.7998 20.1273 16.6704 19.7841 16.6261 19.4101C16.5083 18.4165 17.0221 17.4943 17.8502 17.0436Z" fill="#FE5B3E"/>
<path d="M23.8593 10.451C25.474 10.451 26.7829 9.14201 26.7829 7.52731C26.7829 5.91261 25.474 4.60364 23.8593 4.60364C22.2446 4.60364 20.9356 5.91261 20.9356 7.52731C20.9356 9.14201 22.2446 10.451 23.8593 10.451Z" fill="#FE5B3E"/>
<path d="M33.1746 26.6581L29.2279 12.7314C28.9832 11.868 28.2176 11.3338 27.4227 11.4097C26.2651 11.5202 25.5316 11.5903 24.4886 11.6899C23.6788 11.7672 23.0412 12.4549 22.966 13.3292L22.7108 16.2962L22.9775 16.2646L24.9467 14.3284L23.1462 17.3024L18.8289 17.8143C18.1023 17.9005 17.5831 18.5594 17.6693 19.2859C17.7555 20.0136 18.4154 20.5317 19.1409 20.4456L24.1006 19.8576C24.506 19.8095 24.8666 19.5772 25.078 19.2281L27.2135 15.7007L25.9766 19.7722C25.6154 20.9614 24.3665 20.8528 24.2243 20.9008L22.2952 21.1296L21.7257 27.7511C21.6831 28.247 22.0723 28.6591 22.5222 28.6159C22.8177 28.5878 23.1765 28.5535 23.5809 28.5149L23.0065 30.6831C22.9752 30.8012 22.9567 30.9224 22.9515 31.0445L22.6473 38.1851C22.6076 39.1192 23.3325 39.9087 24.2666 39.9484C24.2911 39.9494 24.3156 39.95 24.3399 39.95C25.2416 39.9499 25.9911 39.2387 26.03 38.3292L26.3263 31.3723L27.1742 28.1717C27.3882 28.1513 27.6029 28.1308 27.8171 28.1104V31.6226C27.8171 31.7539 27.8324 31.8848 27.8627 32.0125L29.4331 38.6471C29.6175 39.4257 30.3122 39.9504 31.079 39.9504C31.2081 39.9504 31.3393 39.9355 31.4704 39.9044C32.3801 39.6891 32.9431 38.777 32.7278 37.8672L31.2029 31.425V27.7872C31.7287 27.737 32.1908 27.6929 32.5563 27.658C33.0075 27.615 33.3094 27.1337 33.1746 26.6581Z" fill="#FE5B3E"/>
<path d="M13.8219 14.7373C13.1359 12.9963 13.5704 11.8524 13.5704 11.8524C13.9229 10.7028 14.7974 9.77961 15.9162 9.35985L11.3971 7.86873C9.6009 7.27608 7.62326 7.72863 6.26584 9.04584C4.30874 10.945 2.1254 13.1254 2.1254 13.1254C1.69119 13.5493 1.54422 14.1877 1.74922 14.7589L3.83885 20.5807C3.4515 20.7062 3.17044 21.0701 3.17044 21.4987C3.17122 21.9351 3.16779 22.5022 3.1745 22.5834H1.38288C0.619126 22.5834 0 23.2471 0 24.0108V30.2581C0 31.0218 0.619126 31.641 1.38288 31.641H1.55883V31.9455C1.55883 32.2189 1.78053 32.4406 2.05402 32.4406H3.29789C3.57138 32.4406 3.79308 32.2189 3.79308 31.9455V31.641H6.98969V31.9455C6.98969 32.2189 7.2114 32.4406 7.48488 32.4406H8.75375C9.02723 32.4406 9.24894 32.2189 9.24894 31.9455V31.641H9.42488C10.1886 31.641 10.8078 31.0218 10.8078 30.2581V24.0108C10.8078 23.2471 10.1886 22.5834 9.42488 22.5834H7.63334C7.63997 22.5032 7.63638 22.0727 7.6374 21.4987C7.6374 21.0735 7.36063 20.7123 6.97797 20.5841C6.9989 20.364 6.9747 20.1364 6.89504 19.9146L5.00502 14.6487L7.45606 12.2553L6.03546 14.4729L7.86387 19.5668C7.90651 19.6856 7.93946 19.8055 7.96398 19.9257C8.42161 19.2596 9.25183 18.9009 10.09 19.0843C11.0798 19.3009 11.7344 19.4442 13.4458 19.8187C13.7735 18.0724 13.756 18.0183 13.857 17.716C14.0822 17.0422 14.5737 16.5107 15.189 16.2458C14.6111 15.875 14.1375 15.3563 13.8219 14.7373ZM5.95932 21.8981C6.1904 21.8152 6.38837 21.6818 6.54823 21.5164H6.65443V22.5833H4.15325V21.5164H4.32154C4.73763 21.9459 5.37307 22.1085 5.95932 21.8981Z" fill="#FE5B3E"/>
</svg>
