<svg width="243" height="243" viewBox="0 0 243 243" fill="none" xmlns="http://www.w3.org/2000/svg">
<g filter="url(#filter0_d_1_520)">
<rect x="56.1276" y="31.1276" width="119.997" height="119.997" rx="59.9986" fill="white"/>
<rect x="53.6276" y="28.6276" width="124.997" height="124.997" rx="62.4986" stroke="white" stroke-width="5"/>
</g>
<g clip-path="url(#clip0_1_520)">
<path d="M116.128 151.128C149.265 151.128 176.128 124.265 176.128 91.1276C176.128 57.9905 149.265 31.1276 116.128 31.1276C82.9905 31.1276 56.1276 57.9905 56.1276 91.1276C56.1276 124.265 82.9905 151.128 116.128 151.128Z" fill="#F0F0F0"/>
<path d="M176.128 91.1278C176.128 65.3299 159.845 43.3373 136.997 34.8597V147.396C159.845 138.918 176.128 116.926 176.128 91.1278Z" fill="#D80027"/>
<path d="M56.1276 91.1278C56.1276 116.926 72.4103 138.918 95.2581 147.396V34.8597C72.4103 43.3373 56.1276 65.3299 56.1276 91.1278Z" fill="#0052B4"/>
</g>
<path d="M89.4868 227.344C88.3708 227.344 87.4048 227.074 86.5888 226.534C85.7848 225.982 85.1668 225.22 84.7348 224.248C84.3028 223.264 84.0868 222.124 84.0868 220.828C84.0868 219.532 84.3028 218.398 84.7348 217.426C85.1668 216.442 85.7848 215.68 86.5888 215.14C87.4048 214.588 88.3708 214.312 89.4868 214.312C90.6028 214.312 91.5628 214.588 92.3668 215.14C93.1708 215.68 93.7888 216.442 94.2208 217.426C94.6528 218.398 94.8688 219.532 94.8688 220.828C94.8688 222.124 94.6528 223.264 94.2208 224.248C93.7888 225.22 93.1708 225.982 92.3668 226.534C91.5628 227.074 90.6028 227.344 89.4868 227.344ZM89.4868 226.012C90.2188 226.012 90.8728 225.808 91.4488 225.4C92.0368 224.98 92.4928 224.386 92.8168 223.618C93.1528 222.838 93.3208 221.908 93.3208 220.828C93.3208 219.748 93.1528 218.824 92.8168 218.056C92.4928 217.288 92.0368 216.7 91.4488 216.292C90.8728 215.872 90.2188 215.662 89.4868 215.662C88.7428 215.662 88.0828 215.872 87.5068 216.292C86.9308 216.7 86.4748 217.288 86.1388 218.056C85.8028 218.824 85.6348 219.748 85.6348 220.828C85.6348 221.908 85.8028 222.838 86.1388 223.618C86.4748 224.386 86.9308 224.98 87.5068 225.4C88.0828 225.808 88.7428 226.012 89.4868 226.012ZM100.977 227.344C100.173 227.344 99.4473 227.2 98.7993 226.912C98.1513 226.612 97.6293 226.168 97.2333 225.58C96.8493 224.992 96.6453 224.26 96.6213 223.384H98.1513C98.1633 224.104 98.4153 224.728 98.9073 225.256C99.3993 225.772 100.089 226.03 100.977 226.03C101.865 226.03 102.531 225.784 102.975 225.292C103.431 224.8 103.659 224.206 103.659 223.51C103.659 222.922 103.515 222.442 103.227 222.07C102.951 221.698 102.573 221.422 102.093 221.242C101.625 221.062 101.109 220.972 100.545 220.972H99.6093V219.694H100.545C101.361 219.694 101.997 219.508 102.453 219.136C102.921 218.764 103.155 218.242 103.155 217.57C103.155 217.006 102.969 216.544 102.597 216.184C102.237 215.812 101.697 215.626 100.977 215.626C100.281 215.626 99.7233 215.836 99.3033 216.256C98.8833 216.664 98.6493 217.18 98.6013 217.804H97.0713C97.1073 217.12 97.2873 216.514 97.6113 215.986C97.9473 215.458 98.4033 215.05 98.9793 214.762C99.5553 214.462 100.221 214.312 100.977 214.312C101.793 214.312 102.471 214.456 103.011 214.744C103.563 215.032 103.977 215.416 104.253 215.896C104.541 216.376 104.685 216.904 104.685 217.48C104.685 218.116 104.511 218.698 104.163 219.226C103.815 219.742 103.293 220.09 102.597 220.27C103.341 220.426 103.959 220.78 104.451 221.332C104.943 221.884 105.189 222.61 105.189 223.51C105.189 224.206 105.027 224.848 104.703 225.436C104.391 226.012 103.923 226.474 103.299 226.822C102.675 227.17 101.901 227.344 100.977 227.344ZM115.351 227.128V215.77H111.589V214.528H120.625V215.77H116.863V227.128H115.351ZM124.832 227.344C123.992 227.344 123.236 227.152 122.564 226.768C121.892 226.384 121.358 225.844 120.962 225.148C120.578 224.44 120.386 223.612 120.386 222.664C120.386 221.716 120.584 220.894 120.98 220.198C121.376 219.49 121.91 218.944 122.582 218.56C123.266 218.176 124.028 217.984 124.868 217.984C125.708 217.984 126.464 218.176 127.136 218.56C127.808 218.944 128.336 219.49 128.72 220.198C129.116 220.894 129.314 221.716 129.314 222.664C129.314 223.612 129.116 224.44 128.72 225.148C128.324 225.844 127.784 226.384 127.1 226.768C126.428 227.152 125.672 227.344 124.832 227.344ZM124.832 226.048C125.348 226.048 125.828 225.922 126.272 225.67C126.716 225.418 127.076 225.04 127.352 224.536C127.628 224.032 127.766 223.408 127.766 222.664C127.766 221.92 127.628 221.296 127.352 220.792C127.088 220.288 126.734 219.91 126.29 219.658C125.846 219.406 125.372 219.28 124.868 219.28C124.352 219.28 123.872 219.406 123.428 219.658C122.984 219.91 122.624 220.288 122.348 220.792C122.072 221.296 121.934 221.92 121.934 222.664C121.934 223.408 122.072 224.032 122.348 224.536C122.624 225.04 122.978 225.418 123.41 225.67C123.854 225.922 124.328 226.048 124.832 226.048ZM134.674 227.344C133.618 227.344 132.778 227.026 132.154 226.39C131.53 225.742 131.218 224.752 131.218 223.42V218.2H132.73V223.258C132.73 225.118 133.492 226.048 135.016 226.048C135.796 226.048 136.438 225.772 136.942 225.22C137.458 224.656 137.716 223.858 137.716 222.826V218.2H139.228V227.128H137.86L137.752 225.526C137.476 226.09 137.062 226.534 136.51 226.858C135.97 227.182 135.358 227.344 134.674 227.344ZM141.717 227.128V218.2H143.085L143.211 219.91C143.487 219.322 143.907 218.854 144.471 218.506C145.035 218.158 145.731 217.984 146.559 217.984V219.568H146.145C145.617 219.568 145.131 219.664 144.687 219.856C144.243 220.036 143.889 220.348 143.625 220.792C143.361 221.236 143.229 221.848 143.229 222.628V227.128H141.717Z" fill="#5A7184"/>
<path d="M74.8773 199.128H78.2373V192.048H83.5893V189.384H78.2373V185.088H85.2213V182.376H74.8773V199.128ZM91.1639 192.504C91.1639 189.936 92.3639 189.168 94.3559 189.168H95.2439V185.64C93.3959 185.64 92.0039 186.528 91.1639 187.896V185.832H87.8039V199.128H91.1639V192.504ZM96.843 192.432C96.843 196.584 99.531 199.344 102.891 199.344C105.003 199.344 106.515 198.336 107.307 197.184V199.128H110.691V185.832H107.307V187.728C106.515 186.624 105.051 185.616 102.915 185.616C99.531 185.616 96.843 188.28 96.843 192.432ZM107.307 192.48C107.307 195 105.627 196.392 103.779 196.392C101.979 196.392 100.275 194.952 100.275 192.432C100.275 189.912 101.979 188.568 103.779 188.568C105.627 188.568 107.307 189.96 107.307 192.48ZM123.485 199.128H126.845V191.328C126.845 187.656 124.637 185.64 121.541 185.64C119.837 185.64 118.397 186.36 117.533 187.488V185.832H114.173V199.128H117.533V191.784C117.533 189.648 118.709 188.496 120.533 188.496C122.309 188.496 123.485 189.648 123.485 191.784V199.128ZM129.376 192.48C129.376 196.656 132.112 199.344 135.952 199.344C139.264 199.344 141.496 197.472 142.216 194.64H138.592C138.184 195.84 137.32 196.464 135.928 196.464C134.056 196.464 132.808 195.072 132.808 192.48C132.808 189.888 134.056 188.472 135.928 188.472C137.32 188.472 138.208 189.192 138.592 190.32H142.216C141.496 187.344 139.264 185.616 135.952 185.616C132.112 185.616 129.376 188.304 129.376 192.48ZM150.589 188.376C152.317 188.376 153.709 189.48 153.757 191.232H147.445C147.709 189.408 148.981 188.376 150.589 188.376ZM156.901 194.952H153.277C152.845 195.84 152.053 196.56 150.613 196.56C148.933 196.56 147.589 195.456 147.421 193.488H157.141C157.213 193.056 157.237 192.624 157.237 192.192C157.237 188.232 154.525 185.616 150.685 185.616C146.749 185.616 144.013 188.28 144.013 192.48C144.013 196.656 146.821 199.344 150.685 199.344C153.973 199.344 156.181 197.4 156.901 194.952Z" fill="#221314"/>
<defs>
<filter id="filter0_d_1_520" x="-7.62939e-06" y="-7.62939e-06" width="242.252" height="242.252" filterUnits="userSpaceOnUse" color-interpolation-filters="sRGB">
<feFlood flood-opacity="0" result="BackgroundImageFix"/>
<feColorMatrix in="SourceAlpha" type="matrix" values="0 0 0 0 0 0 0 0 0 0 0 0 0 0 0 0 0 0 127 0" result="hardAlpha"/>
<feOffset dx="5" dy="30"/>
<feGaussianBlur stdDeviation="28.0638"/>
<feColorMatrix type="matrix" values="0 0 0 0 0.215686 0 0 0 0 0.215686 0 0 0 0 0.215686 0 0 0 0.3 0"/>
<feBlend mode="normal" in2="BackgroundImageFix" result="effect1_dropShadow_1_520"/>
<feBlend mode="normal" in="SourceGraphic" in2="effect1_dropShadow_1_520" result="shape"/>
</filter>
<clipPath id="clip0_1_520">
<rect width="120" height="120" fill="white" transform="translate(56.1276 31.1276)"/>
</clipPath>
</defs>
</svg>
