<svg width="58" height="58" viewBox="0 0 58 58" fill="none" xmlns="http://www.w3.org/2000/svg">
<g filter="url(#filter0_d_1_1609)">
<rect x="13.2181" y="7.33057" width="28.2595" height="28.2595" rx="14.1297" fill="white"/>
<rect x="12.6294" y="6.74181" width="29.437" height="29.437" rx="14.7185" stroke="white" stroke-width="1.1775"/>
</g>
<g clip-path="url(#clip0_1_1609)">
<path d="M27.3482 35.5907C35.152 35.5907 41.4782 29.2644 41.4782 21.4606C41.4782 13.6568 35.152 7.33057 27.3482 7.33057C19.5444 7.33057 13.2181 13.6568 13.2181 21.4606C13.2181 29.2644 19.5444 35.5907 27.3482 35.5907Z" fill="#F0F0F0"/>
<path d="M41.4782 21.4605C41.4782 15.3851 37.6437 10.2058 32.2629 8.20935V34.7118C37.6437 32.7152 41.4782 27.5359 41.4782 21.4605Z" fill="#D80027"/>
<path d="M13.2181 21.4605C13.2181 27.5359 17.0527 32.7152 22.4334 34.7117V8.20935C17.0527 10.2058 13.2181 15.3851 13.2181 21.4605Z" fill="#0052B4"/>
</g>
<defs>
<filter id="filter0_d_1_1609" x="6.09159e-05" y="9.05991e-06" width="57.0507" height="57.0507" filterUnits="userSpaceOnUse" color-interpolation-filters="sRGB">
<feFlood flood-opacity="0" result="BackgroundImageFix"/>
<feColorMatrix in="SourceAlpha" type="matrix" values="0 0 0 0 0 0 0 0 0 0 0 0 0 0 0 0 0 0 127 0" result="hardAlpha"/>
<feOffset dx="1.1775" dy="7.06503"/>
<feGaussianBlur stdDeviation="6.60905"/>
<feColorMatrix type="matrix" values="0 0 0 0 0.215686 0 0 0 0 0.215686 0 0 0 0 0.215686 0 0 0 0.3 0"/>
<feBlend mode="normal" in2="BackgroundImageFix" result="effect1_dropShadow_1_1609"/>
<feBlend mode="normal" in="SourceGraphic" in2="effect1_dropShadow_1_1609" result="shape"/>
</filter>
<clipPath id="clip0_1_1609">
<rect width="28.2601" height="28.2601" fill="white" transform="translate(13.2181 7.33057)"/>
</clipPath>
</defs>
</svg>
