<svg width="98" height="35" viewBox="0 0 98 35" fill="none" xmlns="http://www.w3.org/2000/svg">
<path d="M12.7556 8.4909V26.8943C12.4739 26.9712 12.0769 27.0352 11.5646 27.0864C11.0523 27.1633 10.5144 27.2017 9.95092 27.2017C8.74708 27.2017 7.90183 26.9968 7.41517 26.587C6.92851 26.1771 6.68518 25.4343 6.68518 24.3586V8.4909H0.653158C0.499476 8.23476 0.345794 7.90178 0.192112 7.49196C0.0640433 7.08215 9.11181e-06 6.63391 9.11181e-06 6.14725C9.11181e-06 5.27638 0.192112 4.64885 0.576317 4.26464C0.960522 3.85482 1.4856 3.64991 2.15156 3.64991H18.9413C19.1206 3.90605 19.2743 4.23903 19.4024 4.64885C19.5304 5.05867 19.5945 5.50691 19.5945 5.99357C19.5945 6.83882 19.4024 7.46635 19.0182 7.87617C18.634 8.28599 18.1089 8.4909 17.4429 8.4909H12.7556ZM26.8854 26.8943C26.6292 26.9712 26.2706 27.0352 25.8096 27.0864C25.3485 27.1633 24.8363 27.2017 24.2728 27.2017C23.1201 27.2017 22.2877 27.0224 21.7754 26.6638C21.2632 26.2796 21.007 25.5496 21.007 24.4738V12.7556C21.007 12.0384 21.1863 11.4237 21.5449 10.9114C21.9035 10.3991 22.403 9.95088 23.0433 9.56667C23.8886 9.0544 24.9003 8.65739 26.0785 8.37564C27.2824 8.06827 28.5374 7.91459 29.8437 7.91459C32.5076 7.91459 33.8395 8.81107 33.8395 10.604C33.8395 11.0395 33.7754 11.4365 33.6474 11.7951C33.5193 12.1537 33.3784 12.461 33.2247 12.7172C32.6356 12.5891 31.9184 12.525 31.0732 12.525C30.3304 12.525 29.5876 12.6147 28.8448 12.794C28.102 12.9733 27.4489 13.2166 26.8854 13.524V26.8943ZM42.6098 26.8943C42.3537 26.9712 41.9951 27.0352 41.5341 27.0864C41.073 27.1633 40.5608 27.2017 39.9973 27.2017C38.8446 27.2017 38.0122 27.0224 37.4999 26.6638C37.0133 26.2796 36.7699 25.5496 36.7699 24.4738V8.683C37.0261 8.60616 37.3847 8.52932 37.8457 8.45248C38.3067 8.37564 38.819 8.33722 39.3825 8.33722C40.5351 8.33722 41.3548 8.52932 41.8414 8.91352C42.3537 9.29773 42.6098 10.0277 42.6098 11.1035V26.8943ZM36.4241 3.15045C36.4241 2.27958 36.7187 1.53679 37.3078 0.922058C37.9225 0.30733 38.7166 -3.37776e-05 39.6899 -3.37776e-05C40.6632 -3.37776e-05 41.4444 0.30733 42.0335 0.922058C42.6483 1.53679 42.9556 2.27958 42.9556 3.15045C42.9556 4.04693 42.6483 4.80253 42.0335 5.41726C41.4444 6.03199 40.6632 6.33935 39.6899 6.33935C38.7166 6.33935 37.9225 6.03199 37.3078 5.41726C36.7187 4.80253 36.4241 4.04693 36.4241 3.15045ZM56.3803 27.509C55.7143 27.509 55.0996 27.445 54.5361 27.3169C53.9726 27.2145 53.4603 27.0736 52.9993 26.8943V33.7716C52.7432 33.8484 52.3846 33.9253 51.9235 34.0021C51.4625 34.079 50.9502 34.1174 50.3867 34.1174C49.2341 34.1174 48.4016 33.9253 47.8894 33.5411C47.3771 33.1569 47.121 32.4269 47.121 31.3511V12.3329C47.121 11.667 47.2618 11.1291 47.5436 10.7193C47.8253 10.2839 48.2223 9.89965 48.7346 9.56667C49.503 9.08001 50.4892 8.683 51.693 8.37564C52.8968 8.04266 54.2287 7.87617 55.6887 7.87617C57.1743 7.87617 58.5318 8.06827 59.7613 8.45248C61.0164 8.81107 62.0921 9.38738 62.9886 10.1814C63.8851 10.9754 64.5767 11.9872 65.0633 13.2166C65.5756 14.4461 65.8317 15.9061 65.8317 17.5966C65.8317 19.2102 65.5884 20.6446 65.1018 21.8997C64.6407 23.1291 63.9876 24.1665 63.1423 25.0117C62.2971 25.8314 61.2981 26.4589 60.1455 26.8943C58.9929 27.3041 57.7378 27.509 56.3803 27.509ZM55.4966 22.8602C56.8798 22.8602 57.9427 22.4247 58.6855 21.5539C59.4539 20.683 59.8381 19.3639 59.8381 17.5966C59.8381 15.778 59.4667 14.4717 58.7239 13.6777C58.0068 12.8836 56.995 12.4866 55.6887 12.4866C55.0996 12.4866 54.5873 12.5635 54.1519 12.7172C53.7165 12.8452 53.3195 12.9989 52.9609 13.1782V22.207C53.3195 22.4119 53.7037 22.5784 54.1135 22.7065C54.5233 22.8089 54.9844 22.8602 55.4966 22.8602ZM78.5921 27.509C77.9262 27.509 77.3115 27.445 76.748 27.3169C76.1845 27.2145 75.6722 27.0736 75.2111 26.8943V33.7716C74.955 33.8484 74.5964 33.9253 74.1354 34.0021C73.6743 34.079 73.1621 34.1174 72.5985 34.1174C71.4459 34.1174 70.6135 33.9253 70.1012 33.5411C69.5889 33.1569 69.3328 32.4269 69.3328 31.3511V12.3329C69.3328 11.667 69.4737 11.1291 69.7554 10.7193C70.0372 10.2839 70.4342 9.89965 70.9465 9.56667C71.7149 9.08001 72.701 8.683 73.9048 8.37564C75.1087 8.04266 76.4406 7.87617 77.9006 7.87617C79.3862 7.87617 80.7437 8.06827 81.9732 8.45248C83.2282 8.81107 84.304 9.38738 85.2005 10.1814C86.097 10.9754 86.7885 11.9872 87.2752 13.2166C87.7875 14.4461 88.0436 15.9061 88.0436 17.5966C88.0436 19.2102 87.8003 20.6446 87.3136 21.8997C86.8526 23.1291 86.1994 24.1665 85.3542 25.0117C84.5089 25.8314 83.51 26.4589 82.3574 26.8943C81.2047 27.3041 79.9497 27.509 78.5921 27.509ZM77.7085 22.8602C79.0916 22.8602 80.1546 22.4247 80.8974 21.5539C81.6658 20.683 82.05 19.3639 82.05 17.5966C82.05 15.778 81.6786 14.4717 80.9358 13.6777C80.2186 12.8836 79.2069 12.4866 77.9006 12.4866C77.3115 12.4866 76.7992 12.5635 76.3638 12.7172C75.9283 12.8452 75.5313 12.9989 75.1727 13.1782V22.207C75.5313 22.4119 75.9155 22.5784 76.3253 22.7065C76.7352 22.8089 77.1962 22.8602 77.7085 22.8602Z" fill="#221314"/>
<path d="M90.1999 24.0896C90.1999 23.1163 90.4945 22.2967 91.0836 21.6307C91.6983 20.9648 92.5436 20.6318 93.6194 20.6318C94.6695 20.6318 95.502 20.9648 96.1167 21.6307C96.7314 22.2967 97.0388 23.1163 97.0388 24.0896C97.0388 25.0629 96.7314 25.8826 96.1167 26.5485C95.502 27.2145 94.6695 27.5475 93.6194 27.5475C92.5436 27.5475 91.6983 27.2145 91.0836 26.5485C90.4945 25.8826 90.1999 25.0629 90.1999 24.0896Z" fill="#FE5B3E"/>
</svg>
