<svg width="98" height="35" viewBox="0 0 98 35" fill="none" xmlns="http://www.w3.org/2000/svg">
<path d="M12.7556 8.49102V26.8944C12.4739 26.9713 12.0769 27.0353 11.5646 27.0865C11.0523 27.1634 10.5144 27.2018 9.95092 27.2018C8.74708 27.2018 7.90183 26.9969 7.41517 26.5871C6.92851 26.1773 6.68518 25.4345 6.68518 24.3587V8.49102H0.653158C0.499476 8.23488 0.345794 7.90191 0.192112 7.49209C0.0640433 7.08227 9.11181e-06 6.63403 9.11181e-06 6.14737C9.11181e-06 5.2765 0.192112 4.64897 0.576317 4.26476C0.960522 3.85495 1.4856 3.65004 2.15156 3.65004H18.9413C19.1206 3.90617 19.2743 4.23915 19.4024 4.64897C19.5304 5.05879 19.5945 5.50703 19.5945 5.99369C19.5945 6.83894 19.4024 7.46647 19.0182 7.87629C18.634 8.28611 18.1089 8.49102 17.4429 8.49102H12.7556ZM26.8854 26.8944C26.6292 26.9713 26.2706 27.0353 25.8096 27.0865C25.3485 27.1634 24.8363 27.2018 24.2728 27.2018C23.1201 27.2018 22.2877 27.0225 21.7754 26.6639C21.2632 26.2797 21.007 25.5497 21.007 24.4739V12.7557C21.007 12.0385 21.1863 11.4238 21.5449 10.9115C21.9035 10.3992 22.403 9.951 23.0433 9.56679C23.8886 9.05452 24.9003 8.65751 26.0785 8.37576C27.2824 8.06839 28.5374 7.91471 29.8437 7.91471C32.5076 7.91471 33.8395 8.81119 33.8395 10.6041C33.8395 11.0396 33.7754 11.4366 33.6474 11.7952C33.5193 12.1538 33.3784 12.4611 33.2247 12.7173C32.6356 12.5892 31.9184 12.5252 31.0732 12.5252C30.3304 12.5252 29.5876 12.6148 28.8448 12.7941C28.102 12.9734 27.4489 13.2167 26.8854 13.5241V26.8944ZM42.6098 26.8944C42.3537 26.9713 41.9951 27.0353 41.5341 27.0865C41.073 27.1634 40.5608 27.2018 39.9973 27.2018C38.8446 27.2018 38.0122 27.0225 37.4999 26.6639C37.0133 26.2797 36.7699 25.5497 36.7699 24.4739V8.68312C37.0261 8.60628 37.3847 8.52944 37.8457 8.4526C38.3067 8.37576 38.819 8.33734 39.3825 8.33734C40.5351 8.33734 41.3548 8.52944 41.8414 8.91365C42.3537 9.29785 42.6098 10.0278 42.6098 11.1036V26.8944ZM36.4241 3.15057C36.4241 2.2797 36.7187 1.53691 37.3078 0.92218C37.9225 0.307452 38.7166 8.82927e-05 39.6899 8.82927e-05C40.6632 8.82927e-05 41.4444 0.307452 42.0335 0.92218C42.6483 1.53691 42.9556 2.2797 42.9556 3.15057C42.9556 4.04705 42.6483 4.80265 42.0335 5.41738C41.4444 6.03211 40.6632 6.33947 39.6899 6.33947C38.7166 6.33947 37.9225 6.03211 37.3078 5.41738C36.7187 4.80265 36.4241 4.04705 36.4241 3.15057ZM56.3803 27.5092C55.7143 27.5092 55.0996 27.4451 54.5361 27.3171C53.9726 27.2146 53.4603 27.0737 52.9993 26.8944V33.7717C52.7432 33.8486 52.3846 33.9254 51.9235 34.0022C51.4625 34.0791 50.9502 34.1175 50.3867 34.1175C49.2341 34.1175 48.4016 33.9254 47.8894 33.5412C47.3771 33.157 47.121 32.427 47.121 31.3512V12.3331C47.121 11.6671 47.2618 11.1292 47.5436 10.7194C47.8253 10.284 48.2223 9.89977 48.7346 9.56679C49.503 9.08013 50.4892 8.68312 51.693 8.37576C52.8968 8.04278 54.2287 7.87629 55.6887 7.87629C57.1743 7.87629 58.5318 8.06839 59.7613 8.4526C61.0164 8.81119 62.0921 9.3875 62.9886 10.1815C63.8851 10.9755 64.5767 11.9873 65.0633 13.2167C65.5756 14.4462 65.8317 15.9062 65.8317 17.5967C65.8317 19.2103 65.5884 20.6447 65.1018 21.8998C64.6407 23.1292 63.9876 24.1666 63.1423 25.0118C62.2971 25.8315 61.2981 26.459 60.1455 26.8944C58.9929 27.3043 57.7378 27.5092 56.3803 27.5092ZM55.4966 22.8603C56.8798 22.8603 57.9427 22.4249 58.6855 21.554C59.4539 20.6831 59.8381 19.364 59.8381 17.5967C59.8381 15.7781 59.4667 14.4718 58.7239 13.6778C58.0068 12.8838 56.995 12.4868 55.6887 12.4868C55.0996 12.4868 54.5873 12.5636 54.1519 12.7173C53.7165 12.8453 53.3195 12.999 52.9609 13.1783V22.2071C53.3195 22.412 53.7037 22.5785 54.1135 22.7066C54.5233 22.8091 54.9844 22.8603 55.4966 22.8603ZM78.5921 27.5092C77.9262 27.5092 77.3115 27.4451 76.748 27.3171C76.1845 27.2146 75.6722 27.0737 75.2111 26.8944V33.7717C74.955 33.8486 74.5964 33.9254 74.1354 34.0022C73.6743 34.0791 73.1621 34.1175 72.5985 34.1175C71.4459 34.1175 70.6135 33.9254 70.1012 33.5412C69.5889 33.157 69.3328 32.427 69.3328 31.3512V12.3331C69.3328 11.6671 69.4737 11.1292 69.7554 10.7194C70.0372 10.284 70.4342 9.89977 70.9465 9.56679C71.7149 9.08013 72.701 8.68312 73.9048 8.37576C75.1087 8.04278 76.4406 7.87629 77.9006 7.87629C79.3862 7.87629 80.7437 8.06839 81.9732 8.4526C83.2282 8.81119 84.304 9.3875 85.2005 10.1815C86.097 10.9755 86.7885 11.9873 87.2752 13.2167C87.7875 14.4462 88.0436 15.9062 88.0436 17.5967C88.0436 19.2103 87.8003 20.6447 87.3136 21.8998C86.8526 23.1292 86.1994 24.1666 85.3542 25.0118C84.5089 25.8315 83.51 26.459 82.3574 26.8944C81.2047 27.3043 79.9497 27.5092 78.5921 27.5092ZM77.7085 22.8603C79.0916 22.8603 80.1546 22.4249 80.8974 21.554C81.6658 20.6831 82.05 19.364 82.05 17.5967C82.05 15.7781 81.6786 14.4718 80.9358 13.6778C80.2186 12.8838 79.2069 12.4868 77.9006 12.4868C77.3115 12.4868 76.7992 12.5636 76.3638 12.7173C75.9283 12.8453 75.5313 12.999 75.1727 13.1783V22.2071C75.5313 22.412 75.9155 22.5785 76.3253 22.7066C76.7352 22.8091 77.1962 22.8603 77.7085 22.8603Z" fill="#221314"/>
<path d="M90.1999 24.0897C90.1999 23.1164 90.4945 22.2968 91.0836 21.6308C91.6983 20.9649 92.5436 20.6319 93.6194 20.6319C94.6695 20.6319 95.502 20.9649 96.1167 21.6308C96.7314 22.2968 97.0388 23.1164 97.0388 24.0897C97.0388 25.0631 96.7314 25.8827 96.1167 26.5487C95.502 27.2146 94.6695 27.5476 93.6194 27.5476C92.5436 27.5476 91.6983 27.2146 91.0836 26.5487C90.4945 25.8827 90.1999 25.0631 90.1999 24.0897Z" fill="#FE5B3E"/>
</svg>
