<svg width="73" height="46" viewBox="0 0 73 46" fill="none" xmlns="http://www.w3.org/2000/svg">
<path d="M9.94392 16.4015V29.9717C9.73617 30.0283 9.44342 30.0755 9.06569 30.1133C8.68795 30.17 8.29133 30.1983 7.87582 30.1983C6.98813 30.1983 6.36487 30.0472 6.00602 29.745C5.64717 29.4428 5.46774 28.8951 5.46774 28.1019V16.4015H1.01989C0.906569 16.2126 0.793248 15.9671 0.679926 15.6649C0.585492 15.3627 0.538275 15.0322 0.538275 14.6733C0.538275 14.0312 0.679926 13.5684 0.963229 13.2851C1.24653 12.983 1.63371 12.8319 2.12477 12.8319H14.5051C14.6373 13.0207 14.7506 13.2663 14.8451 13.5684C14.9395 13.8706 14.9867 14.2012 14.9867 14.56C14.9867 15.1833 14.8451 15.646 14.5618 15.9482C14.2785 16.2504 13.8913 16.4015 13.4002 16.4015H9.94392ZM20.3628 29.9717C20.174 30.0283 19.9095 30.0755 19.5696 30.1133C19.2296 30.17 18.8519 30.1983 18.4364 30.1983C17.5865 30.1983 16.9726 30.0661 16.5949 29.8017C16.2172 29.5184 16.0283 28.9801 16.0283 28.1869V19.5461C16.0283 19.0173 16.1605 18.564 16.4249 18.1863C16.6893 17.8085 17.0576 17.478 17.5298 17.1947C18.1531 16.817 18.8991 16.5242 19.7679 16.3165C20.6556 16.0898 21.581 15.9765 22.5443 15.9765C24.5085 15.9765 25.4906 16.6376 25.4906 17.9596C25.4906 18.2807 25.4434 18.5735 25.349 18.8379C25.2545 19.1023 25.1506 19.3289 25.0373 19.5178C24.6029 19.4234 24.0741 19.3761 23.4508 19.3761C22.9031 19.3761 22.3554 19.4423 21.8077 19.5745C21.2599 19.7067 20.7783 19.8861 20.3628 20.1127V29.9717ZM31.9576 29.9717C31.7688 30.0283 31.5044 30.0755 31.1644 30.1133C30.8244 30.17 30.4467 30.1983 30.0312 30.1983C29.1813 30.1983 28.5675 30.0661 28.1897 29.8017C27.8309 29.5184 27.6514 28.9801 27.6514 28.1869V16.5431C27.8403 16.4865 28.1047 16.4298 28.4447 16.3731C28.7847 16.3165 29.1624 16.2881 29.5779 16.2881C30.4278 16.2881 31.0322 16.4298 31.391 16.7131C31.7688 16.9964 31.9576 17.5347 31.9576 18.3279V29.9717ZM27.3965 12.4636C27.3965 11.8214 27.6137 11.2737 28.0481 10.8204C28.5014 10.3671 29.0868 10.1405 29.8045 10.1405C30.5222 10.1405 31.0983 10.3671 31.5327 10.8204C31.986 11.2737 32.2126 11.8214 32.2126 12.4636C32.2126 13.1246 31.986 13.6818 31.5327 14.135C31.0983 14.5883 30.5222 14.815 29.8045 14.815C29.0868 14.815 28.5014 14.5883 28.0481 14.135C27.6137 13.6818 27.3965 13.1246 27.3965 12.4636ZM42.1116 30.425C41.6206 30.425 41.1673 30.3777 40.7518 30.2833C40.3363 30.2078 39.9585 30.1039 39.6186 29.9717V35.0428C39.4297 35.0994 39.1653 35.1561 38.8253 35.2128C38.4853 35.2694 38.1076 35.2978 37.6921 35.2978C36.8422 35.2978 36.2284 35.1561 35.8506 34.8728C35.4729 34.5895 35.284 34.0512 35.284 33.258V19.2345C35.284 18.7434 35.3879 18.3468 35.5957 18.0446C35.8034 17.7235 36.0962 17.4402 36.4739 17.1947C37.0405 16.8359 37.7676 16.5431 38.6553 16.3165C39.543 16.071 40.5251 15.9482 41.6017 15.9482C42.6971 15.9482 43.6981 16.0898 44.6047 16.3731C45.5301 16.6376 46.3234 17.0625 46.9844 17.648C47.6455 18.2335 48.1554 18.9795 48.5143 19.8861C48.892 20.7927 49.0809 21.8692 49.0809 23.1157C49.0809 24.3056 48.9014 25.3633 48.5426 26.2887C48.2026 27.1953 47.721 27.9602 47.0977 28.5835C46.4745 29.1879 45.7379 29.6506 44.888 29.9717C44.0381 30.2739 43.1126 30.425 42.1116 30.425ZM41.46 26.997C42.4799 26.997 43.2637 26.6759 43.8114 26.0338C44.378 25.3916 44.6613 24.4189 44.6613 23.1157C44.6613 21.7748 44.3875 20.8115 43.8398 20.2261C43.3109 19.6406 42.5649 19.3478 41.6017 19.3478C41.1673 19.3478 40.7895 19.4045 40.4685 19.5178C40.1474 19.6122 39.8546 19.7256 39.5902 19.8578V26.5154C39.8546 26.6665 40.1379 26.7892 40.4401 26.8837C40.7423 26.9592 41.0823 26.997 41.46 26.997ZM58.4901 30.425C57.999 30.425 57.5457 30.3777 57.1302 30.2833C56.7147 30.2078 56.337 30.1039 55.997 29.9717V35.0428C55.8081 35.0994 55.5437 35.1561 55.2037 35.2128C54.8638 35.2694 54.486 35.2978 54.0705 35.2978C53.2206 35.2978 52.6068 35.1561 52.2291 34.8728C51.8513 34.5895 51.6625 34.0512 51.6625 33.258V19.2345C51.6625 18.7434 51.7663 18.3468 51.9741 18.0446C52.1818 17.7235 52.4746 17.4402 52.8523 17.1947C53.4189 16.8359 54.1461 16.5431 55.0338 16.3165C55.9214 16.071 56.9036 15.9482 57.9801 15.9482C59.0755 15.9482 60.0766 16.0898 60.9831 16.3731C61.9086 16.6376 62.7018 17.0625 63.3629 17.648C64.0239 18.2335 64.5338 18.9795 64.8927 19.8861C65.2704 20.7927 65.4593 21.8692 65.4593 23.1157C65.4593 24.3056 65.2799 25.3633 64.921 26.2887C64.5811 27.1953 64.0994 27.9602 63.4762 28.5835C62.8529 29.1879 62.1163 29.6506 61.2664 29.9717C60.4165 30.2739 59.4911 30.425 58.4901 30.425ZM57.8385 26.997C58.8583 26.997 59.6422 26.6759 60.1899 26.0338C60.7565 25.3916 61.0398 24.4189 61.0398 23.1157C61.0398 21.7748 60.7659 20.8115 60.2182 20.2261C59.6894 19.6406 58.9433 19.3478 57.9801 19.3478C57.5457 19.3478 57.168 19.4045 56.8469 19.5178C56.5258 19.6122 56.2331 19.7256 55.9687 19.8578V26.5154C56.2331 26.6665 56.5164 26.7892 56.8186 26.8837C57.1208 26.9592 57.4607 26.997 57.8385 26.997Z" fill="#221314"/>
<path d="M67.0493 27.9036C67.0493 27.1859 67.2665 26.5815 67.7009 26.0904C68.1542 25.5994 68.7775 25.3538 69.5707 25.3538C70.3451 25.3538 70.9589 25.5994 71.4122 26.0904C71.8655 26.5815 72.0921 27.1859 72.0921 27.9036C72.0921 28.6213 71.8655 29.2256 71.4122 29.7167C70.9589 30.2078 70.3451 30.4533 69.5707 30.4533C68.7775 30.4533 68.1542 30.2078 67.7009 29.7167C67.2665 29.2256 67.0493 28.6213 67.0493 27.9036Z" fill="#FE5B3E"/>
</svg>
