<svg width="243" height="243" viewBox="0 0 243 243" fill="none" xmlns="http://www.w3.org/2000/svg">
<path d="M89.4868 227.344C88.3708 227.344 87.4048 227.074 86.5888 226.534C85.7848 225.982 85.1668 225.22 84.7348 224.248C84.3028 223.264 84.0868 222.124 84.0868 220.828C84.0868 219.532 84.3028 218.398 84.7348 217.426C85.1668 216.442 85.7848 215.68 86.5888 215.14C87.4048 214.588 88.3708 214.312 89.4868 214.312C90.6028 214.312 91.5628 214.588 92.3668 215.14C93.1708 215.68 93.7888 216.442 94.2208 217.426C94.6528 218.398 94.8688 219.532 94.8688 220.828C94.8688 222.124 94.6528 223.264 94.2208 224.248C93.7888 225.22 93.1708 225.982 92.3668 226.534C91.5628 227.074 90.6028 227.344 89.4868 227.344ZM89.4868 226.012C90.2188 226.012 90.8728 225.808 91.4488 225.4C92.0368 224.98 92.4928 224.386 92.8168 223.618C93.1528 222.838 93.3208 221.908 93.3208 220.828C93.3208 219.748 93.1528 218.824 92.8168 218.056C92.4928 217.288 92.0368 216.7 91.4488 216.292C90.8728 215.872 90.2188 215.662 89.4868 215.662C88.7428 215.662 88.0828 215.872 87.5068 216.292C86.9308 216.7 86.4748 217.288 86.1388 218.056C85.8028 218.824 85.6348 219.748 85.6348 220.828C85.6348 221.908 85.8028 222.838 86.1388 223.618C86.4748 224.386 86.9308 224.98 87.5068 225.4C88.0828 225.808 88.7428 226.012 89.4868 226.012ZM100.977 227.344C100.173 227.344 99.4473 227.2 98.7993 226.912C98.1513 226.612 97.6293 226.168 97.2333 225.58C96.8493 224.992 96.6453 224.26 96.6213 223.384H98.1513C98.1633 224.104 98.4153 224.728 98.9073 225.256C99.3993 225.772 100.089 226.03 100.977 226.03C101.865 226.03 102.531 225.784 102.975 225.292C103.431 224.8 103.659 224.206 103.659 223.51C103.659 222.922 103.515 222.442 103.227 222.07C102.951 221.698 102.573 221.422 102.093 221.242C101.625 221.062 101.109 220.972 100.545 220.972H99.6093V219.694H100.545C101.361 219.694 101.997 219.508 102.453 219.136C102.921 218.764 103.155 218.242 103.155 217.57C103.155 217.006 102.969 216.544 102.597 216.184C102.237 215.812 101.697 215.626 100.977 215.626C100.281 215.626 99.7233 215.836 99.3033 216.256C98.8833 216.664 98.6493 217.18 98.6013 217.804H97.0713C97.1073 217.12 97.2873 216.514 97.6113 215.986C97.9473 215.458 98.4033 215.05 98.9793 214.762C99.5553 214.462 100.221 214.312 100.977 214.312C101.793 214.312 102.471 214.456 103.011 214.744C103.563 215.032 103.977 215.416 104.253 215.896C104.541 216.376 104.685 216.904 104.685 217.48C104.685 218.116 104.511 218.698 104.163 219.226C103.815 219.742 103.293 220.09 102.597 220.27C103.341 220.426 103.959 220.78 104.451 221.332C104.943 221.884 105.189 222.61 105.189 223.51C105.189 224.206 105.027 224.848 104.703 225.436C104.391 226.012 103.923 226.474 103.299 226.822C102.675 227.17 101.901 227.344 100.977 227.344ZM115.351 227.128V215.77H111.589V214.528H120.625V215.77H116.863V227.128H115.351ZM124.832 227.344C123.992 227.344 123.236 227.152 122.564 226.768C121.892 226.384 121.358 225.844 120.962 225.148C120.578 224.44 120.386 223.612 120.386 222.664C120.386 221.716 120.584 220.894 120.98 220.198C121.376 219.49 121.91 218.944 122.582 218.56C123.266 218.176 124.028 217.984 124.868 217.984C125.708 217.984 126.464 218.176 127.136 218.56C127.808 218.944 128.336 219.49 128.72 220.198C129.116 220.894 129.314 221.716 129.314 222.664C129.314 223.612 129.116 224.44 128.72 225.148C128.324 225.844 127.784 226.384 127.1 226.768C126.428 227.152 125.672 227.344 124.832 227.344ZM124.832 226.048C125.348 226.048 125.828 225.922 126.272 225.67C126.716 225.418 127.076 225.04 127.352 224.536C127.628 224.032 127.766 223.408 127.766 222.664C127.766 221.92 127.628 221.296 127.352 220.792C127.088 220.288 126.734 219.91 126.29 219.658C125.846 219.406 125.372 219.28 124.868 219.28C124.352 219.28 123.872 219.406 123.428 219.658C122.984 219.91 122.624 220.288 122.348 220.792C122.072 221.296 121.934 221.92 121.934 222.664C121.934 223.408 122.072 224.032 122.348 224.536C122.624 225.04 122.978 225.418 123.41 225.67C123.854 225.922 124.328 226.048 124.832 226.048ZM134.674 227.344C133.618 227.344 132.778 227.026 132.154 226.39C131.53 225.742 131.218 224.752 131.218 223.42V218.2H132.73V223.258C132.73 225.118 133.492 226.048 135.016 226.048C135.796 226.048 136.438 225.772 136.942 225.22C137.458 224.656 137.716 223.858 137.716 222.826V218.2H139.228V227.128H137.86L137.752 225.526C137.476 226.09 137.062 226.534 136.51 226.858C135.97 227.182 135.358 227.344 134.674 227.344ZM141.717 227.128V218.2H143.085L143.211 219.91C143.487 219.322 143.907 218.854 144.471 218.506C145.035 218.158 145.731 217.984 146.559 217.984V219.568H146.145C145.617 219.568 145.131 219.664 144.687 219.856C144.243 220.036 143.889 220.348 143.625 220.792C143.361 221.236 143.229 221.848 143.229 222.628V227.128H141.717Z" fill="#5A7184"/>
<path d="M73.8929 199.128H77.2529V188.232L81.7649 199.128H84.3089L88.7969 188.232V199.128H92.1569V182.376H88.3649L83.0369 194.832L77.7089 182.376H73.8929V199.128ZM101.391 188.376C103.119 188.376 104.511 189.48 104.559 191.232H98.2469C98.5109 189.408 99.7829 188.376 101.391 188.376ZM107.703 194.952H104.079C103.647 195.84 102.855 196.56 101.415 196.56C99.7349 196.56 98.3909 195.456 98.2229 193.488H107.943C108.015 193.056 108.039 192.624 108.039 192.192C108.039 188.232 105.327 185.616 101.487 185.616C97.5509 185.616 94.8149 188.28 94.8149 192.48C94.8149 196.656 97.6229 199.344 101.487 199.344C104.775 199.344 106.983 197.4 107.703 194.952ZM118.035 199.128H121.827L117.411 192.456L121.779 185.832H118.179L115.731 189.936L113.019 185.832H109.227L113.619 192.456L109.275 199.128H112.875L115.299 195L118.035 199.128ZM123.852 199.128H127.212V185.832H123.852V199.128ZM125.556 184.248C126.732 184.248 127.62 183.384 127.62 182.28C127.62 181.176 126.732 180.312 125.556 180.312C124.356 180.312 123.492 181.176 123.492 182.28C123.492 183.384 124.356 184.248 125.556 184.248ZM129.868 192.48C129.868 196.656 132.604 199.344 136.444 199.344C139.756 199.344 141.988 197.472 142.708 194.64H139.084C138.676 195.84 137.812 196.464 136.42 196.464C134.548 196.464 133.3 195.072 133.3 192.48C133.3 189.888 134.548 188.472 136.42 188.472C137.812 188.472 138.7 189.192 139.084 190.32H142.708C141.988 187.344 139.756 185.616 136.444 185.616C132.604 185.616 129.868 188.304 129.868 192.48ZM158.21 192.48C158.21 188.28 155.21 185.616 151.37 185.616C147.53 185.616 144.53 188.28 144.53 192.48C144.53 196.656 147.434 199.344 151.274 199.344C155.138 199.344 158.21 196.656 158.21 192.48ZM147.938 192.48C147.938 189.816 149.546 188.544 151.322 188.544C153.098 188.544 154.754 189.816 154.754 192.48C154.754 195.12 153.05 196.416 151.274 196.416C149.474 196.416 147.938 195.12 147.938 192.48Z" fill="#221314"/>
<g filter="url(#filter0_d_1_576)">
<rect x="56.1276" y="31.1276" width="119.997" height="119.997" rx="59.9986" fill="white"/>
<rect x="53.6276" y="28.6276" width="124.997" height="124.997" rx="62.4986" stroke="white" stroke-width="5"/>
</g>
<g clip-path="url(#clip0_1_576)">
<path d="M116.128 151.128C149.265 151.128 176.128 124.265 176.128 91.1276C176.128 57.9905 149.265 31.1276 116.128 31.1276C82.9905 31.1276 56.1276 57.9905 56.1276 91.1276C56.1276 124.265 82.9905 151.128 116.128 151.128Z" fill="#F0F0F0"/>
<path d="M176.128 91.1273C176.128 67.3397 162.284 46.7859 142.214 37.0809V145.174C162.284 135.469 176.128 114.915 176.128 91.1273Z" fill="#D80027"/>
<path d="M56.1276 91.1273C56.1276 114.915 69.9709 135.469 90.0407 145.174V37.0809C69.9709 46.7859 56.1276 67.3397 56.1276 91.1273Z" fill="#6DA544"/>
<path d="M100.475 91.1275C100.475 99.7719 107.483 106.78 116.128 106.78C124.772 106.78 131.78 99.7719 131.78 91.1275V85.91H100.475V91.1275Z" fill="#6DA544"/>
<path d="M136.997 80.6929H121.345C121.345 77.8115 119.009 75.4755 116.127 75.4755C113.246 75.4755 110.91 77.8115 110.91 80.6929H95.2576C95.2576 83.5745 97.7675 85.9103 100.649 85.9103H100.475C100.475 88.7919 102.811 91.1277 105.692 91.1277C105.692 94.0094 108.028 96.3451 110.91 96.3451H121.345C124.226 96.3451 126.562 94.0094 126.562 91.1277C129.444 91.1277 131.78 88.7919 131.78 85.9103H131.606C134.487 85.9103 136.997 83.5745 136.997 80.6929Z" fill="#FF9811"/>
</g>
<defs>
<filter id="filter0_d_1_576" x="-7.62939e-06" y="-7.62939e-06" width="242.252" height="242.252" filterUnits="userSpaceOnUse" color-interpolation-filters="sRGB">
<feFlood flood-opacity="0" result="BackgroundImageFix"/>
<feColorMatrix in="SourceAlpha" type="matrix" values="0 0 0 0 0 0 0 0 0 0 0 0 0 0 0 0 0 0 127 0" result="hardAlpha"/>
<feOffset dx="5" dy="30"/>
<feGaussianBlur stdDeviation="28.0638"/>
<feColorMatrix type="matrix" values="0 0 0 0 0.215686 0 0 0 0 0.215686 0 0 0 0 0.215686 0 0 0 0.3 0"/>
<feBlend mode="normal" in2="BackgroundImageFix" result="effect1_dropShadow_1_576"/>
<feBlend mode="normal" in="SourceGraphic" in2="effect1_dropShadow_1_576" result="shape"/>
</filter>
<clipPath id="clip0_1_576">
<rect width="120" height="120" fill="white" transform="translate(56.1276 31.1276)"/>
</clipPath>
</defs>
</svg>
