<svg width="58" height="58" viewBox="0 0 58 58" fill="none" xmlns="http://www.w3.org/2000/svg">
<g filter="url(#filter0_d_1_1660)">
<rect x="13.2181" y="7.33057" width="28.2595" height="28.2595" rx="14.1297" fill="white"/>
<rect x="12.6293" y="6.74181" width="29.437" height="29.437" rx="14.7185" stroke="white" stroke-width="1.1775"/>
</g>
<g clip-path="url(#clip0_1_1660)">
<path d="M27.3481 35.5907C35.1519 35.5907 41.4782 29.2644 41.4782 21.4606C41.4782 13.6568 35.1519 7.33057 27.3481 7.33057C19.5443 7.33057 13.2181 13.6568 13.2181 21.4606C13.2181 29.2644 19.5443 35.5907 27.3481 35.5907Z" fill="#F0F0F0"/>
<path d="M41.4782 21.4609C41.4782 15.8589 38.2181 11.0184 33.4916 8.73291V34.1888C38.2181 31.9033 41.4782 27.0629 41.4782 21.4609Z" fill="#D80027"/>
<path d="M13.2181 21.4609C13.2181 27.0629 16.4782 31.9033 21.2046 34.1889V8.73291C16.4782 11.0184 13.2181 15.8589 13.2181 21.4609Z" fill="#6DA544"/>
<path d="M23.662 21.4604C23.662 23.4962 25.3124 25.1465 27.3482 25.1465C29.3839 25.1465 31.0343 23.4962 31.0343 21.4604V20.2317H23.662V21.4604Z" fill="#6DA544"/>
<path d="M32.2629 19.0034H28.5768C28.5768 18.3248 28.0267 17.7747 27.3481 17.7747C26.6695 17.7747 26.1194 18.3248 26.1194 19.0034H22.4333C22.4333 19.682 23.0244 20.2321 23.7029 20.2321H23.662C23.662 20.9107 24.2121 21.4608 24.8907 21.4608C24.8907 22.1394 25.4408 22.6895 26.1194 22.6895H28.5768C29.2555 22.6895 29.8055 22.1394 29.8055 21.4608C30.4842 21.4608 31.0342 20.9107 31.0342 20.2321H30.9933C31.6719 20.2321 32.2629 19.682 32.2629 19.0034Z" fill="#FF9811"/>
</g>
<defs>
<filter id="filter0_d_1_1660" x="-1.19209e-07" y="9.05991e-06" width="57.0506" height="57.0507" filterUnits="userSpaceOnUse" color-interpolation-filters="sRGB">
<feFlood flood-opacity="0" result="BackgroundImageFix"/>
<feColorMatrix in="SourceAlpha" type="matrix" values="0 0 0 0 0 0 0 0 0 0 0 0 0 0 0 0 0 0 127 0" result="hardAlpha"/>
<feOffset dx="1.1775" dy="7.06503"/>
<feGaussianBlur stdDeviation="6.60905"/>
<feColorMatrix type="matrix" values="0 0 0 0 0.215686 0 0 0 0 0.215686 0 0 0 0 0.215686 0 0 0 0.3 0"/>
<feBlend mode="normal" in2="BackgroundImageFix" result="effect1_dropShadow_1_1660"/>
<feBlend mode="normal" in="SourceGraphic" in2="effect1_dropShadow_1_1660" result="shape"/>
</filter>
<clipPath id="clip0_1_1660">
<rect width="28.2601" height="28.2601" fill="white" transform="translate(13.2181 7.33057)"/>
</clipPath>
</defs>
</svg>
