<svg width="303" height="303" viewBox="0 0 303 303" fill="none" xmlns="http://www.w3.org/2000/svg">
<circle cx="151.481" cy="151.481" r="151.481" transform="matrix(-1 0 0 1 302.963 0)" fill="url(#paint0_linear_1_1676)"/>
<mask id="mask0_1_1676" style="mask-type:alpha" maskUnits="userSpaceOnUse" x="0" y="0" width="303" height="303">
<circle cx="151.481" cy="151.481" r="151.481" transform="matrix(-1 0 0 1 302.963 0)" fill="url(#paint1_linear_1_1676)"/>
</mask>
<g mask="url(#mask0_1_1676)">
<path d="M366.486 240.819C338.472 254.45 307.28 249.683 277.343 251.607C260.2 252.694 242.722 253.196 225.58 251.858C207.851 250.52 191.377 252.025 173.733 254.617C144.882 258.966 117.454 248.931 88.9379 247.175C53.8158 245.084 18.3593 248.094 -16.7628 247.425C-22.1984 247.342 -22.1984 237.558 -16.7628 237.391C18.3593 236.805 53.8158 236.889 88.9379 237.809C117.454 238.561 147.893 242.659 176.241 237.642C208.353 231.955 240.465 237.474 272.743 234.464C303.684 231.537 334.458 233.209 365.399 231.453C370.333 231.286 370.333 238.979 366.486 240.819Z" fill="white" fill-opacity="0.2"/>
<path d="M357.622 206.952C341.064 206.2 324.172 209.628 307.447 209.795C290.304 209.879 273.245 211.635 256.102 211.802C238.959 212.053 221.816 211.802 204.673 211.97C187.53 212.137 170.806 215.482 153.746 216.736C120.13 219.078 85.9273 217.154 52.3104 217.154C44.2825 217.154 35.502 215.816 27.5577 216.736C21.4532 217.489 15.1814 219.579 9.07687 220.667C-0.958008 222.339 -16.2612 229.447 -25.7943 222.339C-34.1567 216.067 -26.0452 200.011 -18.1009 206.701C-13.7525 210.381 -3.29953 205.614 1.71793 205.196C8.32422 204.611 14.7633 204.36 21.2859 203.189C35.5857 200.764 50.8889 202.604 65.3558 202.604C98.1364 202.604 131.419 204.778 164.116 201.684C179.921 200.179 194.973 198.423 210.945 198.506C229.008 198.59 247.322 199.928 265.468 198.924C295.154 197.252 329.357 192.485 358.123 203.524C359.545 204.109 359.378 207.036 357.622 206.952Z" fill="white" fill-opacity="0.2"/>
<path d="M366.737 182.366C348.674 184.289 331.113 179.774 313.05 179.188C295.405 178.603 277.761 180.024 260.116 179.021C223.489 176.93 187.531 171.913 150.736 172.08C133.091 172.164 115.279 171.16 97.7184 172.498C82.5825 173.669 67.7811 177.934 52.5615 178.686C37.9273 179.439 23.4603 181.948 8.90976 183.369C-7.06241 184.958 -23.1182 188.972 -39.0904 188.805C-49.9615 188.638 -49.8779 168.066 -39.0904 168.819C-8.73492 170.909 22.1223 161.376 52.5615 160.54C67.6974 160.122 82.5825 155.606 97.7184 154.603C115.279 153.432 133.175 154.435 150.736 154.519C187.531 154.603 223.489 159.871 260.116 162.212C277.008 163.3 293.984 162.045 310.876 162.714C329.775 163.467 348.089 169.237 366.737 172.164C372.172 172.916 372.423 181.697 366.737 182.366Z" fill="white" fill-opacity="0.2"/>
<path d="M353.691 139.133C335.963 140.052 318.569 141.725 300.757 141.474C283.949 141.223 267.057 140.22 250.249 139.718C216.966 138.715 183.684 139.383 150.401 139.634C118.708 139.885 87.2654 141.558 55.4883 141.558C38.0945 141.558 20.7843 141.558 3.39053 141.641C-4.38651 141.641 -12.2472 141.223 -20.0242 141.641C-28.2194 142.143 -36.08 144.819 -44.2751 145.321C-53.4738 145.906 -53.5574 128.345 -44.2751 128.345C-28.3866 128.178 -12.5817 125.836 3.39053 125.836C19.9481 125.836 36.5892 125.836 53.1468 125.92C85.6765 125.92 117.872 124.415 150.401 124.749C182.848 125.084 215.377 124.917 247.823 126.422C283.196 128.094 318.402 132.61 353.691 134.617C356.2 134.701 356.2 138.965 353.691 139.133Z" fill="white" fill-opacity="0.2"/>
<path d="M354.946 105.432C336.799 106.687 318.653 104.68 300.506 104.763C281.858 104.847 263.21 105.181 244.562 105.265C207.182 105.349 169.802 101.251 132.422 102.589C97.3837 103.843 62.3452 105.767 27.3904 102.756C14.2614 101.586 2.05234 101.418 -11.0766 103.425C-23.2857 105.265 -35.9129 108.025 -48.2057 107.69C-57.1534 107.439 -57.1534 90.7144 -48.2057 91.2162C-23.3693 92.6378 1.13251 83.6064 26.2197 86.7841C43.0281 88.9583 60.5891 88.2893 77.5648 88.5402C96.0457 88.791 114.108 87.6204 132.506 87.035C169.886 85.8643 207.266 90.4635 244.646 90.6308C262.541 90.7144 280.437 90.2963 298.248 91.2998C317.566 92.3869 335.879 97.2371 355.029 99.7458C357.956 100.164 358.123 105.265 354.946 105.432Z" fill="white" fill-opacity="0.2"/>
<path d="M347.169 69.7247C312.883 74.6586 276.841 72.9025 242.304 72.8189C205.51 72.7353 169.217 66.3798 132.422 67.1324C114.36 67.5505 96.2968 65.6272 78.234 65.5435C61.4256 65.5435 44.7844 68.4704 28.0596 68.6377C12.2546 68.8049 -3.21576 72.2334 -18.8535 73.5714C-26.3796 74.2404 -33.1532 72.6516 -40.5957 74.1569C-47.2856 75.4948 -54.3936 74.8258 -61.1672 74.7422C-69.7805 74.7422 -69.7805 58.77 -61.1672 58.77C-54.0591 58.77 -47.6201 58.77 -40.6793 57.4321C-32.9859 55.9268 -25.4598 58.4356 -17.7664 57.3485C-3.04852 55.3415 11.502 52.7491 26.3035 52.4146C42.9447 52.0801 59.335 49.2368 75.9761 49.3205C94.7915 49.4041 113.607 51.1602 132.506 50.9093C168.632 50.4912 204.088 57.0975 240.13 57.5993C258.444 57.8501 276.674 57.5157 294.987 58.1847C303.851 58.5192 312.883 58.3519 321.747 59.3553C330.36 60.3588 338.639 62.9512 347.252 63.8711C350.263 64.3728 350.179 69.3066 347.169 69.7247Z" fill="white" fill-opacity="0.2"/>
</g>
<defs>
<linearGradient id="paint0_linear_1_1676" x1="98.9379" y1="182.6" x2="220.278" y2="39.1464" gradientUnits="userSpaceOnUse">
<stop stop-color="#FE5B3E"/>
<stop offset="1" stop-color="#FE7B49"/>
</linearGradient>
<linearGradient id="paint1_linear_1_1676" x1="151.481" y1="0" x2="151.481" y2="302.963" gradientUnits="userSpaceOnUse">
<stop stop-color="#FE5B3E"/>
<stop offset="1" stop-color="#FE7B49"/>
</linearGradient>
</defs>
</svg>
