<svg width="92" height="102" viewBox="0 0 92 102" fill="none" xmlns="http://www.w3.org/2000/svg">
<g filter="url(#filter0_d_1_1996)">
<rect x="7.61731" y="3.04688" width="76.7046" height="86.7642" rx="4.5704" fill="white"/>
</g>
<rect x="13.9044" y="9.33447" width="64.1301" height="37.7236" rx="3.04693" fill="#C4C4C4"/>
<path d="M18.0233 59.6023V56.1897H18.6327L19.7881 58.4615L20.9386 56.1897H21.548V59.6023H21.0312V57.0819L19.988 59.1148H19.5882L18.5401 57.0867V59.6023H18.0233ZM23.3529 59.6608C23.1222 59.6608 22.9142 59.6088 22.7289 59.5048C22.5469 59.3975 22.4023 59.2497 22.295 59.0612C22.1878 58.8694 22.1342 58.6468 22.1342 58.3933C22.1342 58.1398 22.1878 57.9188 22.295 57.7303C22.4055 57.5385 22.5534 57.3906 22.7387 57.2866C22.9239 57.1794 23.1303 57.1257 23.3578 57.1257C23.5886 57.1257 23.7949 57.1794 23.9769 57.2866C24.1622 57.3906 24.3084 57.5385 24.4157 57.7303C24.5262 57.9188 24.5815 58.1398 24.5815 58.3933C24.5815 58.6468 24.5262 58.8694 24.4157 59.0612C24.3084 59.2497 24.1622 59.3975 23.9769 59.5048C23.7917 59.6088 23.5837 59.6608 23.3529 59.6608ZM23.3529 59.2172C23.4764 59.2172 23.5902 59.1863 23.6942 59.1245C23.8014 59.0628 23.8876 58.9718 23.9526 58.8515C24.0176 58.728 24.0501 58.5753 24.0501 58.3933C24.0501 58.2113 24.0176 58.0601 23.9526 57.9399C23.8908 57.8164 23.8063 57.7238 23.6991 57.662C23.5951 57.6003 23.4813 57.5694 23.3578 57.5694C23.2343 57.5694 23.1189 57.6003 23.0117 57.662C22.9077 57.7238 22.8232 57.8164 22.7582 57.9399C22.6932 58.0601 22.6607 58.2113 22.6607 58.3933C22.6607 58.5753 22.6932 58.728 22.7582 58.8515C22.8232 58.9718 22.9077 59.0628 23.0117 59.1245C23.1157 59.1863 23.2294 59.2172 23.3529 59.2172ZM26.0324 59.6608C25.7399 59.6608 25.5092 59.5698 25.3402 59.3878C25.1744 59.2058 25.0915 58.9344 25.0915 58.5737V57.1843H25.6083V58.52C25.6083 58.988 25.8001 59.222 26.1836 59.222C26.3753 59.222 26.533 59.1538 26.6565 59.0173C26.78 58.8808 26.8417 58.6858 26.8417 58.4323V57.1843H27.3585V59.6023H26.9002L26.8612 59.1782C26.7865 59.3277 26.676 59.4463 26.5297 59.534C26.3867 59.6185 26.2209 59.6608 26.0324 59.6608ZM28.0158 59.6023V57.1843H28.4741L28.5131 57.6084C28.5879 57.4589 28.6967 57.3419 28.8397 57.2574C28.986 57.1696 29.1534 57.1257 29.3419 57.1257C29.6344 57.1257 29.8635 57.2168 30.0293 57.3988C30.1983 57.5808 30.2828 57.8521 30.2828 58.2129V59.6023H29.7709V58.2665C29.7709 57.7985 29.5791 57.5645 29.1956 57.5645C29.0039 57.5645 28.8446 57.6328 28.7179 57.7693C28.5944 57.9058 28.5326 58.1008 28.5326 58.3543V59.6023H28.0158ZM31.9054 59.6023C31.6681 59.6023 31.4796 59.5454 31.3399 59.4317C31.2001 59.3147 31.1303 59.1083 31.1303 58.8125V57.6181H30.7159V57.1843H31.1303L31.1936 56.57H31.647V57.1843H32.3295V57.6181H31.647V58.8125C31.647 58.9458 31.6746 59.0384 31.7299 59.0904C31.7884 59.1392 31.8875 59.1635 32.0273 59.1635H32.3052V59.6023H31.9054ZM33.6814 59.6608C33.4766 59.6608 33.3076 59.6267 33.1744 59.5584C33.0411 59.4902 32.942 59.4008 32.877 59.2903C32.812 59.1765 32.7795 59.053 32.7795 58.9198C32.7795 58.6858 32.8705 58.5005 33.0525 58.364C33.2345 58.2275 33.4945 58.1593 33.8325 58.1593H34.4663V58.1154C34.4663 57.9269 34.4143 57.7855 34.3103 57.6913C34.2095 57.597 34.0779 57.5499 33.9154 57.5499C33.7724 57.5499 33.6473 57.5856 33.54 57.6571C33.436 57.7254 33.3726 57.8278 33.3499 57.9643H32.8331C32.8494 57.7888 32.9079 57.6393 33.0086 57.5158C33.1126 57.389 33.2426 57.2931 33.3986 57.2281C33.5579 57.1599 33.7318 57.1257 33.9203 57.1257C34.2583 57.1257 34.5199 57.2151 34.7052 57.3939C34.8904 57.5694 34.983 57.8099 34.983 58.1154V59.6023H34.5345L34.4906 59.1879C34.4224 59.3212 34.3233 59.4333 34.1933 59.5243C34.0633 59.6153 33.8926 59.6608 33.6814 59.6608ZM33.7838 59.2415C33.9235 59.2415 34.0405 59.209 34.1348 59.144C34.2323 59.0758 34.307 58.9864 34.359 58.8759C34.4143 58.7654 34.4484 58.6435 34.4614 58.5103H33.8861C33.6814 58.5103 33.5351 58.546 33.4474 58.6175C33.3629 58.689 33.3206 58.7784 33.3206 58.8857C33.3206 58.9962 33.3613 59.0839 33.4425 59.1489C33.527 59.2107 33.6408 59.2415 33.7838 59.2415ZM35.8781 56.726C35.7806 56.726 35.6993 56.6967 35.6343 56.6382C35.5726 56.5765 35.5417 56.5001 35.5417 56.4091C35.5417 56.3181 35.5726 56.2434 35.6343 56.1849C35.6993 56.1231 35.7806 56.0922 35.8781 56.0922C35.9756 56.0922 36.0552 56.1231 36.1169 56.1849C36.1819 56.2434 36.2144 56.3181 36.2144 56.4091C36.2144 56.5001 36.1819 56.5765 36.1169 56.6382C36.0552 56.6967 35.9756 56.726 35.8781 56.726ZM35.6197 59.6023V57.1843H36.1364V59.6023H35.6197ZM36.8186 59.6023V57.1843H37.2769L37.3159 57.6084C37.3906 57.4589 37.4995 57.3419 37.6425 57.2574C37.7888 57.1696 37.9561 57.1257 38.1446 57.1257C38.4371 57.1257 38.6663 57.2168 38.832 57.3988C39.001 57.5808 39.0855 57.8521 39.0855 58.2129V59.6023H38.5736V58.2665C38.5736 57.7985 38.3819 57.5645 37.9984 57.5645C37.8066 57.5645 37.6474 57.6328 37.5206 57.7693C37.3971 57.9058 37.3354 58.1008 37.3354 58.3543V59.6023H36.8186ZM42.0681 59.6608C41.8178 59.6608 41.5985 59.6169 41.41 59.5292C41.2215 59.4414 41.0736 59.3163 40.9663 59.1538C40.8623 58.9913 40.8087 58.7979 40.8054 58.5737H41.3515C41.3547 58.7557 41.4181 58.91 41.5416 59.0368C41.6651 59.1635 41.839 59.2269 42.0632 59.2269C42.2615 59.2269 42.4159 59.1798 42.5264 59.0855C42.6401 58.988 42.697 58.8645 42.697 58.715C42.697 58.5948 42.6694 58.4973 42.6141 58.4225C42.5621 58.3478 42.489 58.286 42.3947 58.2373C42.3037 58.1885 42.1981 58.1446 42.0778 58.1056C41.9576 58.0666 41.8308 58.0244 41.6976 57.9789C41.4343 57.8911 41.2361 57.7774 41.1028 57.6376C40.9728 57.4979 40.9078 57.3143 40.9078 57.0867C40.9046 56.895 40.9485 56.7276 41.0395 56.5846C41.1337 56.4416 41.2637 56.3311 41.4295 56.2531C41.5985 56.1719 41.7951 56.1312 42.0193 56.1312C42.2403 56.1312 42.4337 56.1719 42.5995 56.2531C42.7685 56.3344 42.9001 56.4481 42.9944 56.5944C43.0886 56.7374 43.1374 56.9047 43.1406 57.0965H42.5946C42.5946 57.0087 42.5719 56.9259 42.5264 56.8479C42.4809 56.7666 42.4142 56.7 42.3265 56.648C42.2387 56.596 42.1315 56.57 42.0047 56.57C41.8422 56.5667 41.7073 56.6074 41.6001 56.6919C41.4961 56.7764 41.4441 56.8934 41.4441 57.0429C41.4441 57.1761 41.4831 57.2785 41.5611 57.35C41.6391 57.4215 41.7463 57.4816 41.8828 57.5304C42.0193 57.5759 42.1753 57.6295 42.3509 57.6913C42.5199 57.7465 42.671 57.8131 42.8042 57.8911C42.9375 57.9691 43.0431 58.0715 43.1211 58.1983C43.2024 58.325 43.243 58.4859 43.243 58.6809C43.243 58.8532 43.1991 59.014 43.1114 59.1635C43.0236 59.3098 42.892 59.43 42.7165 59.5243C42.541 59.6153 42.3249 59.6608 42.0681 59.6608ZM44.9341 59.6608C44.6969 59.6608 44.484 59.6072 44.2955 59.4999C44.1102 59.3927 43.964 59.2448 43.8567 59.0563C43.7527 58.8645 43.7007 58.6435 43.7007 58.3933C43.7007 58.143 43.7527 57.9236 43.8567 57.7351C43.964 57.5434 44.1102 57.3939 44.2955 57.2866C44.484 57.1794 44.6969 57.1257 44.9341 57.1257C45.2331 57.1257 45.4834 57.2038 45.6849 57.3598C45.8896 57.5158 46.0213 57.727 46.0798 57.9935H45.5386C45.5061 57.8603 45.4346 57.7563 45.3241 57.6815C45.2136 57.6068 45.0836 57.5694 44.9341 57.5694C44.8074 57.5694 44.6904 57.6019 44.5831 57.6669C44.4759 57.7286 44.3897 57.8213 44.3247 57.9448C44.2597 58.065 44.2272 58.2145 44.2272 58.3933C44.2272 58.572 44.2597 58.7232 44.3247 58.8467C44.3897 58.9669 44.4759 59.0595 44.5831 59.1245C44.6904 59.1895 44.8074 59.222 44.9341 59.222C45.0836 59.222 45.2136 59.1847 45.3241 59.1099C45.4346 59.0352 45.5061 58.9295 45.5386 58.793H46.0798C46.0245 59.053 45.8945 59.2627 45.6898 59.4219C45.485 59.5812 45.2331 59.6608 44.9341 59.6608ZM47.7712 59.6608C47.5405 59.6608 47.3325 59.6088 47.1472 59.5048C46.9652 59.3975 46.8206 59.2497 46.7133 59.0612C46.6061 58.8694 46.5525 58.6468 46.5525 58.3933C46.5525 58.1398 46.6061 57.9188 46.7133 57.7303C46.8238 57.5385 46.9717 57.3906 47.157 57.2866C47.3422 57.1794 47.5486 57.1257 47.7761 57.1257C48.0069 57.1257 48.2132 57.1794 48.3952 57.2866C48.5805 57.3906 48.7267 57.5385 48.834 57.7303C48.9445 57.9188 48.9998 58.1398 48.9998 58.3933C48.9998 58.6468 48.9445 58.8694 48.834 59.0612C48.7267 59.2497 48.5805 59.3975 48.3952 59.5048C48.21 59.6088 48.002 59.6608 47.7712 59.6608ZM47.7712 59.2172C47.8947 59.2172 48.0085 59.1863 48.1125 59.1245C48.2197 59.0628 48.3059 58.9718 48.3709 58.8515C48.4359 58.728 48.4684 58.5753 48.4684 58.3933C48.4684 58.2113 48.4359 58.0601 48.3709 57.9399C48.3091 57.8164 48.2246 57.7238 48.1174 57.662C48.0134 57.6003 47.8996 57.5694 47.7761 57.5694C47.6526 57.5694 47.5372 57.6003 47.43 57.662C47.326 57.7238 47.2415 57.8164 47.1765 57.9399C47.1115 58.0601 47.079 58.2113 47.079 58.3933C47.079 58.5753 47.1115 58.728 47.1765 58.8515C47.2415 58.9718 47.326 59.0628 47.43 59.1245C47.534 59.1863 47.6477 59.2172 47.7712 59.2172ZM50.4774 59.6023C50.2401 59.6023 50.0516 59.5454 49.9119 59.4317C49.7721 59.3147 49.7023 59.1083 49.7023 58.8125V57.6181H49.2879V57.1843H49.7023L49.7656 56.57H50.219V57.1843H50.9015V57.6181H50.219V58.8125C50.219 58.9458 50.2466 59.0384 50.3019 59.0904C50.3604 59.1392 50.4595 59.1635 50.5993 59.1635H50.8772V59.6023H50.4774Z" fill="#221314"/>
<circle cx="25.8503" cy="74.7201" r="8.72599" fill="#C4C4C4" stroke="white" stroke-width="0.152347"/>
<circle cx="39.2337" cy="74.7199" r="8.72599" fill="#C4C4C4" stroke="white" stroke-width="0.152347"/>
<circle cx="52.6171" cy="74.7199" r="8.72599" fill="#C4C4C4" stroke="white" stroke-width="0.152347"/>
<circle cx="66.0005" cy="74.7189" r="8.72599" fill="#DEDEDE" stroke="white" stroke-width="0.152347"/>
<path d="M64.7212 75.2206V74.7868H65.6425V73.9239H66.0911V74.7868H67.0124V75.2206H66.0911V76.0884H65.6425V75.2206H64.7212Z" fill="#7A7474"/>
<defs>
<filter id="filter0_d_1_1996" x="-1.7643e-05" y="-5.53131e-05" width="91.9392" height="101.999" filterUnits="userSpaceOnUse" color-interpolation-filters="sRGB">
<feFlood flood-opacity="0" result="BackgroundImageFix"/>
<feColorMatrix in="SourceAlpha" type="matrix" values="0 0 0 0 0 0 0 0 0 0 0 0 0 0 0 0 0 0 127 0" result="hardAlpha"/>
<feOffset dy="4.5704"/>
<feGaussianBlur stdDeviation="3.80866"/>
<feColorMatrix type="matrix" values="0 0 0 0 0 0 0 0 0 0 0 0 0 0 0 0 0 0 0.06 0"/>
<feBlend mode="normal" in2="BackgroundImageFix" result="effect1_dropShadow_1_1996"/>
<feBlend mode="normal" in="SourceGraphic" in2="effect1_dropShadow_1_1996" result="shape"/>
</filter>
</defs>
</svg>
